<mxfile host="app.diagrams.net" agent="Mozilla/5.0 (Windows NT 10.0; Win64; x64) AppleWebKit/537.36 (KHTML, like Gecko) Chrome/141.0.0.0 Safari/537.36" version="28.2.7">
  <diagram name="페이지-1" id="eqTWeJIeLCsdWd2QmBcr">
    <mxGraphModel dx="1554" dy="807" grid="1" gridSize="10" guides="1" tooltips="1" connect="1" arrows="1" fold="1" page="1" pageScale="1" pageWidth="827" pageHeight="1169" math="0" shadow="0">
      <root>
        <mxCell id="0" />
        <mxCell id="1" parent="0" />
        <mxCell id="4H_WjhlQltqY6Wh8Jc6u-2" value="" style="group;fontFamily=HD현대체 Light;" vertex="1" connectable="0" parent="1">
          <mxGeometry x="134" y="320" width="560" height="652" as="geometry" />
        </mxCell>
        <mxCell id="4H_WjhlQltqY6Wh8Jc6u-3" value="" style="group;fillColor=default;container=0;" vertex="1" connectable="0" parent="4H_WjhlQltqY6Wh8Jc6u-2">
          <mxGeometry x="30" y="2" width="500" height="619.68" as="geometry" />
        </mxCell>
        <mxCell id="4H_WjhlQltqY6Wh8Jc6u-4" value="" style="group;fillColor=#dae8fc;fillStyle=auto;strokeColor=none;container=0;sketch=1;curveFitting=1;jiggle=2;" vertex="1" connectable="0" parent="4H_WjhlQltqY6Wh8Jc6u-2">
          <mxGeometry width="560" height="652" as="geometry" />
        </mxCell>
        <mxCell id="4H_WjhlQltqY6Wh8Jc6u-5" value="&lt;font&gt;Source Code&lt;/font&gt;" style="rounded=0;whiteSpace=wrap;html=1;strokeColor=none;fontFamily=HD현대체 Bold;fontSize=22;fillStyle=zigzag-line;fillColor=none;container=0;sketch=1;curveFitting=1;jiggle=2;" vertex="1" parent="4H_WjhlQltqY6Wh8Jc6u-2">
          <mxGeometry x="89.49999999999977" y="21.680000000000064" width="140" height="60" as="geometry" />
        </mxCell>
        <mxCell id="4H_WjhlQltqY6Wh8Jc6u-6" value="" style="endArrow=classic;html=1;rounded=0;strokeWidth=2;fillColor=#647687;strokeColor=#314354;exitX=0.787;exitY=1.034;exitDx=0;exitDy=0;exitPerimeter=0;" edge="1" parent="4H_WjhlQltqY6Wh8Jc6u-2" source="4H_WjhlQltqY6Wh8Jc6u-23">
          <mxGeometry width="50" height="50" relative="1" as="geometry">
            <mxPoint x="465.5" y="201.68000000000006" as="sourcePoint" />
            <mxPoint x="465.01" y="291.52" as="targetPoint" />
          </mxGeometry>
        </mxCell>
        <mxCell id="4H_WjhlQltqY6Wh8Jc6u-7" value="" style="shape=mxgraph.networks2.icon;aspect=fixed;fillColor=#EDEDED;strokeColor=#000000;gradientColor=#5B6163;network2IconShadow=1;network2bgFillColor=none;labelPosition=center;verticalLabelPosition=bottom;align=center;verticalAlign=top;network2Icon=mxgraph.networks2.pc;network2IconYOffset=-0.0593;network2IconW=0.9999;network2IconH=0.7096;container=0;" vertex="1" parent="4H_WjhlQltqY6Wh8Jc6u-2">
          <mxGeometry x="422.6591447368421" y="292.4350748318391" width="96.84210526315793" height="72.63157894736844" as="geometry" />
        </mxCell>
        <mxCell id="4H_WjhlQltqY6Wh8Jc6u-8" value="" style="shape=image;verticalLabelPosition=bottom;verticalAlign=top;imageAspect=0;aspect=fixed;image=data:image/png,iVBORw0KGgoAAAANSUhEUgAAAlgAAAHCCAYAAAAzc7dkAAAACXBIWXMAAAsTAAALEwEAmpwYAAAgAElEQVR4nOzdd3jb1dn/8fdXw5JtWV5J7NjxSGJn770XhEACYZcQRqGFpy0tXZS9CpRCaCG/lk0LPB0PoxBGgbIh7JDllTjD2dt2vKf2749jNSHxTOR8JX/v13XpcoYtHdsaH51zn/togUAAIYQQQggROia9ByCEEEII0dNIwBJCCCGECDEJWEIIIYQQISYBSwghhBAixCRgCSGEEEKEmAQsIYQQQogQk4AlhBBCCBFiErCEEEIIIUJMApYQQgghRIhJwBJCCCGECDEJWEIIIYQQISYBSwghhBAixCRgCSGEEEKEmAQsIYQQQogQk4AlhBBCCBFiErCEEEIIIUJMApYQQgghRIhJwBJCCCGECDEJWEIIIYQQISYBSwghhBAixCRgCSGEEEKEmAQsIYQQQogQk4AlhBBCCBFiErCEEEIIIUJMApYQQgghRIhJwBJCCCGECDEJWEIIIYQQISYBSwghhBAixCRgCSGEEEKEmAQsIYQQQogQk4AlhBBCCBFiErCEEEIIIUJMApYQQgghRIhJwBJCCCGECDEJWEIIIYQQISYBSwghhBAixCRgCSGEEEKEmAQsIYQQQogQk4AlhBBCCBFiErCEEEIIIUJMApYQQgghRIhJwBJCCCGECDEJWEIIIYQQISYBSwghhBAixCRgCSGEEEKEmAQsIYQQQogQk4AlhBBCCBFiErCEEEIIIUJMApYQQgghRIhJwBJCCCGECDEJWEIIIYQQISYBSwghhBAixCRgCSGEEEKEmAQsIYQQQogQk4AlhBBCCBFiErCEEEIIIUJMApYQQgghRIhJwBJCCCGECDEJWEIIIYQQISYBSwghhBAixCRgCSGEEEKEmAQsIYQQQogQk4AlhBBCCBFiErCEEEIIIUJMApYQQgghRIhJwBJCCCGECDEJWEIIIYQQISYBSwghhBAixCRgCSGEEEKEmAQsIYQQQogQk4AlhBBCCBFiErCEEEIIIULMovcA9KJpmt5DEEJvGmADrC2XqKP+bGu5mNq4mFu+3g8EjvnoBTwtH4N/9gBuwNXy0d3yf0IIAwgEAnoP4ZQzbMASwmCCoSkGiG25RLdcgv8XDFgm1HODBRWiWrscPfsdOObiB3wtH4/+sxtoRoUsV8ufm4B6oLHl4mn5fCGEiGiaEVMlyAyW6LGiUSEqAYgH4lr+HoMKURaOzFIFw9Cxs1DHXoLa+vOxD6ajg9ixfz92JszPkdkuD0cCVz1QB9RwJIB5uvSTEEKEDSNmDQlYQkQuBypEJaOCVPASnJWyoIKQlyOzSEcHqXDQWvgKzp4Fx+1BhawaoBaobPlYgywzChERjJg1JGAJETmSUIGqD2qGKgG11BeshwqGER/Hzz5FoqPDV3DmDY4sN9YB1UA5KnRVopYehRBhxohZQwKWEOErDhWm+qLClRM1OwXfXVoz4oPYhKoZC4ZLL0cCVykqdJWhfk5CCJ0ZMWtIwBIifFiAFKA3KlQlopYBg8t8UgDeNo0jy6IW1ExWDXAYFbgOogKYEEIHRswaErCE0JcdSAPSUeHKiZqZcXNkhkp0nYkjrSdA1XAdRgWt/ajlRCHEKWLErCEBS4hTLxpIRYWqNFSoMqPaFniRZa1Q01A/X1vLxyagAtgH7AGq9BuaEMZgxKwhAUuIU8OMClSZqFAV1/JvLtRMlTEfiPo4NmyVocLWPtSyohAixIyYNSRgCdG9koBsIAPoxZFQ5dZxTOIIM2qZ1gQ0oJYPd7R8lHo3IULEiFlDApYQoWcBsoABqGL1aI4cE2PMB1xksKB+VwFUvdYeYBdqOVEIcRKMmDUkYAkROk4gF+iPav7pRy1BeTm+27kITwHUbFbwLMZG1GzWNmC3juMSIqIZMWtIwBLi5KUAg1CzVg6OnLMXQIJVpDOjjhkKoNo9bAdKkCVeIbrEiFlDApYQJy4bFazSULMdTch5eT2Vhlo+tKBaPGwHtqLaPwghOmDErCEBS4iuywGGoFotaKhlJGmtYBzB5cNaVEH8ZmT3oRDtMmLWkIAlROcNAIajCtd9qBkrYz6ARADVxDQaFbC3ARtRoUsIcQwjZg0JWEJ0bAAwDLUU6Edt55f6KgHqfmBFHbpdj6rP2ogsHQrxHUbMGhKwhGhbFjAS1SDUhwQr0bbgjFYM6szDzUAhUpMnBCABy1AkYIl2JANjUDNXAY7UWMmdRnQkgKrPikH10toIbEKWkoXBGTFrSMAS4ogY1IzVYFR37wbUzJXcWURXBVD1WVZUe4dCYKeuIxJCR0bMGhKwhFBGoQrY41HByoMEKxEaMajmpTuA9cjh0sKAjJg1JGAJo+sLTETVWTWhGoTKnUOEUrA7fBzq/lUE5COtPYSBGDFrSMASRhUFTEDtDtRQu76kgF10p6ML4cuAdcjxO8IgjJg1JGAJI8oBxgFJqGAlZwWKUy0WdZ/bAqxGzWwJ0WMZMWtIwBJGEgtMAQaiQlUjEqyEPgKocw7jUDVZ61DNSoXokYyYNSRgCaPIASahXtDqkd2BIjwcvduwBFiFqgUUokcxYtaQgCV6OhsqWA0F3EgRuwg/wSJ4J1CNClm79ByQEKFmxKwhAUv0ZP2AaajGoTVIs1AR3gKoAngLsAEVtGSnoegRjJg1JGCJnmoyqrdV8OxA+YWLSBBABaw44BDwFWrHoRARzYhZQwKW6GnigNlABqrWShqGikgUQN2XPcC3qON2hIhYRswaErBET5IFTAccqAN3RecEUDN9vpaPR/89eAkc9e9HfzShAmzwYkLtjjv647F/Np2abyviBc81tKMOj/4KtftViIhjxKwhAUv0FOOA8agXoCZk1qo1PlShv7fl4mn5uxmwWywWu6ZpdqfTGTV48OCo1NTUaKfTGWu1WmM0TbO0XKyapllRDTPNLdfhDQQCPsDr9/ubPB5Pk8vlam5sbHTt3bu3aePGjS6v19vk9/ub/X6/C3ChQpYNtRxmabk+C/J7O9bR7RzKgE+Ro3ZEBDJi1pCAJSKdDZiFasMgS4KKxpGg6Wm5eC0Wiz0xMTGpX79+CVOnTo1PSkrqbTab+44fP94xYsSIpJiYmGRN0xKjo6Nj4uLiLKjWAZaTGIcH8Bw+fNjj8/kqvV5vZUVFRfU333xTe/DgwUq3232wuLi44uuvv67x+XyVlZWVtRzpdm5BtS+IOpkfRA8SXDJ0A58jB0eLCGPErCEBS0SyJOA0oBdqe7uRj7rxcOSQap/D4YhOT0/vN27cuOSpU6emx8TE9J83b15Senp6dlRUVB/CaJnO7XY3eDye3WvWrCnduHHj4dLS0pJ33nmnrLq6+sCOHTuqOLIUGYMKXUb9HQdQy4VRwFrUwdFCRAQjZg0JWCJSZQJzUC829RjvRdeHClSNgCUzM9OZkZGROX/+/LShQ4cOnTZtWr9+/frlokJJpNr1+eefl+7bt2/rW2+9tWPHjh27Vq9eXYqaxdFQfaOiMNbvPoCaWXQAW1FLhtLKQYQ9I2YNCVgiEg1D9bfyYYx6Kw31IuoGalHLf3Gnn356+qRJk4bMmzdv1OTJk7McDscAXUfZ/SrWr1+/f8uWLYWvvfba1vz8/JJt27ZVomq6nKjZLbO+QzwlgjN68cB+4CNU0BYibBkxa0jAEpFmCjAG9YISnMnoiTTUC2kzakekJyUlJWXRokVD5s+fP2TcuHFjBw0alI1aMjIkl8t1qLi4eMurr75a9Nlnn+V/9dVX+1D3Cyfq3EkL6mfYk8Whmuh+BFToPBYh2mTErCEBS0QKEzAPyEXN4vTUswQ1VHCsAVx9+vRJueCCC4YsWrRowpw5cyY5HI5UnccXrhq3b9++ccWKFQXvvvvu+pUrV25H/RzjUMtpwcDa0wRQ358H+ATYq+9whGidEbOGBCwRCaKAM1DNQ6t1Hkt3CL741wF18fHxcRdccMHoxYsXTzvzzDPH2O32NJ3HF2l8mzdvXvfaa6+tevnll/MKCwv3oH7Giaj7Uk970gseGG0GPkMdGi1EWDFi1pCAJcJdDLAASEGFq570iwvOVlUBpunTp2dfeumlky6++OKZffr0Gazz2HqKus8//3ztCy+88OVrr722vry8vBo14xNHz5rVOrop6VeoswyFCBtGzBoSsEQ4i0fNXCWilgV70i+tEahKTExMvOyyyyZcdtlls6ZMmTKByN71F9bKy8t3vPbaayv/8pe/fLlu3bpdqN14iaiZn57wRBjsIRaDOl4nT9/hCHGEEbOGBCwRrpKAM1HFynVEfrgKzpbUAHW5ubnpV1999YyrrrrqjL59++bqPDajqXvnnXdW/vWvf/30jTfe2IjalZmMClyR/oR49GHR64DV+g5HCMWIWUMClghHvYGz6Bk9roJjrwIapk2bNuhHP/rRaUuXLj3dYrH00nNgAoqKilb96U9/eufZZ59djVqu7YVaaovk3lLB43WcqFmsVfoORwgJWIYiAStsJQOLULMJ9YRRx/EuCt7BaoC6WbNm5d5www1nL168eCFy/EvYKSkpyX/00UffeeaZZ752uVyNQB/UfTBSg9bRISsf+Ebf4QijM2LWkIAlwkkSKlxFobqUR+ovSUMta9bOmjUr58Ybb1x49tlnL8TAPasixe7duzctX778jaeeeupzl8sVnNGK1H5awZAVjwpZX+s7HGFkRswaErBEuEgCgiEkUpcFNVTxesXIkSOz7rrrrnMvuuiis1B1ZCKCbNu2rXD58uUrnnjiieDMTy8ic9fh0SErD5nJEjoxYtaQgCXCQTxq5iqGyAxXGqrRY3nfvn3jb7rppoW/+MUvLtY0LVHvgYmTk5+f/8Wdd975r7fffrsAtdyWgAotkfTEeXTIWo06KFqIU8qIWUMCltCbAzin5WOk7RYMjrUc8N94441zbr/99kvj4+MH6jkoEXKBFStWvHX//ff/Ky8vbw+qPstOZNVnHb278CugUN/hCKMxYtaQgCX0ZAMWE5l9rkyo5cDyM888c9SyZcu+P2rUqEl6D0p0q+o//vGPf7/tttve9ng8flTQiqRlw2DIcqA6vm/SdzjCSIyYNSRgCb2YUMuCaaiddpHyC9FQMxelycnJscuXL7/oiiuuuJLIGb84SSUlJRvuuuuu51566aV1qNrBWCJnNivYjDQa+BDYoe9whFEYMWtIwBJ6OQ0YhOoPFSm/DBNqpq32xz/+8fTf/va316SkpPTXe1BCH6+88sq/rr/++hdLS0trgFQiZzYrgFriNAPvAIf0HY4wAiNmDQlYQg/TgNGomatIuAMGXzgPZmZmJj3xxBNXLVq06By9ByX0d/jw4Z233HLLU88+++zXqB5uDiJjNiuA2lTiBf5NzzxEXYQRI2YNCVjiVBuDClg1RMYLkQnVk6v8yiuvnPb444//1OFwZOk9KBFeXnrppX/9/Oc//1t5eXkzajYLwv/NQwBV9F4DvAm49B2O6MmMmDUkYIlTqT+wABVYPIT/0qAJKIuPjzc9/vjjl1922WWX6z0gEb4OHDiw+X/+538ee+eddwqAvqhap3B/ExFAtW/YD7yt81hED2bErCEBS5wqScB5qBecZsI7XAUL2ffPnz9/yDPPPPOr7OzsoXoPSkQE//Lly5/+9a9//Qqq+D2eyAhZiUAR8KXOYxE9lBGzhgQscSrYUOHKQfgfgRNcEjx88803n/Xggw/+CrXjSohO++abbz5ZunTpY7t27QoWwEN4LxlqqDD4ObBR57GIHsiIWUMCljgVzgSyCP92DCagPDY2lueff/7aiy+++CK9ByQiV1VV1Z4f/vCHf3j99deDS4bhfKZhsH2DDfgPaslQiJAxYtaQgCW622RgHOG9Syl4ZzgwZsyYtBdeeOHXQ4cOHa/riERP4bvrrrseue+++/4N9Ebt3AvXJcPgzkIP8Drq2KoTZUWFtaiWP5tauZg5shx/9CUA+FrG4T7qo+8kxiN0ZsSsIQFLdKcc4HTUETjh+qISfILfu2TJkgkvvvjiHaiDfYUImVdfffWl733ve38JBALRqHqncA0LwaL3A8BbbXyOCbVs7mi5xKDqzaJRocracrEc9dGEeqwFP7Z3+8GQ5UWFq2DYCv69oeXSCDQd82cRpoyYNSRgie4SD1xIeBe1m1Bb0w/ceOONZz/00EM3od5VCxFy69at+/r8889/cO/evS7UMTvhGrJAHWq9HihAPZaTWz46UWEquJwYhXocHT37dHRIOvrfoOMl0qOfJ44NZdpRfw9ePKjHsAcVsGpaLnWoJsYNSPuJsGDErCEBS3QHDVXU3ovwPcDZhFoCqXzmmWeuvvbaa6/We0Ci5ystLS0588wzb8/Pz69A1WWF88yuBRVO7C0XUEGmtSU9vRwduMyoMZtRs10u1Ju7aqASONzysU6XkRqcEbOGBCzRHaYAYwnfY3BMQLXVanW99dZbv1ywYMEivQckjKOxsXH/okWL7ly5cuVO1Fmc4fgkHEAFFTPhEaS66ujgFYX6PjwcCVxVQClQjgSuU8KIWUMClgi1LI40Ew3Hd+dm4HBcXBzvv//+7VOnTp2h94CE8QQCgarzzz//t2+++WYe0I/IOccwkmmox38wcPlpOaWh5VIKlBGez1sRz4hZQwKWCKVY4HzUNH041l2ZgbLU1NSoDz/88N4RI0aM1XtAwtBc11xzzb3PPvvsSiATNdtizCdk/VhQtWQm1E7FatTh13tRhf7y+wgRI2YNCVgilMK535UZKM3NzXV8/PHHD2ZkZAzSe0BCANxxxx0P3n///W+jZrLMyIu6XoLLiVbUBoQKVD+w/aiwJU6CEbOGBCwRKsOA2YRnvysTUDpy5MjEzz///I8JCQmZeg9IiKM99NBDj9x8880rgAwkZOktWH8W1XLxoMLWzpaL1GydACNmDQlYIhTiUC0ZAqidO+H0wzUBZcOGDXN+8803Dzudziy9ByREa+6+++6H7r333n+jQpYsF4YPE0daUtShZrR2oZYRw7nVRlgxYtaQgCVCIVyXBs1AaU5OjuOrr776Q58+fQbqPSAh2vOb3/zm9w8//PB/UDVZUvgefiyohqp+1KzWdmAbqtGpaIcRs4YELHGyhgBzUeEqnO5MZqA8IyPD/vXXX/+hX79+uXoPSIjO+NGPfnT3M8888zESssKZhuoNZgFqgR1ACar9g2iFEbOGBCxxMhyopUEIr6VBE1CdkJBAQUHBHzMzM4foPSAhuiDw/e9//9a///3vX6Jmho35JB0ZAqjlQztqFms3sBnV7kEcxYhZQwKWOBnzgQGE19KgCag3m811eXl5y0aOHDlB7wEJcQK8F1100c0rVqxYh9pdKL2ZwlsAtfswBtXuYQewEdU9XiABy1AkYJ20bFRD0TrC5x22huq/Vf7xxx/fMW/evDP0HpAQJ8E1e/bsn33++ec7gVQkZEWCAGrZMBb1XLQdKEYd0WNoRswaErDEibCgGorGoabFw+GHqaG2Ux948cUXr1uyZMlSvQckxMlyu937hg0b9vPt27c3A0lIyIoUR89oNaHqswowcDG8EbOGSe8BiIg0CnWQc7iEK1BPaAfvu+++SyRciZ4iKiqq31tvvXW3yWTyoA4nl+fsyKChDpwObv4ZDZyLeu4Ml+dM0c3kwSq6yol6kmggfJ4ozMD+K664Ytodd9xxvd6DESKUhg4dOvq99977Naqex034PO5Ex4JBqxrVR2sqsBi1eUH0cLJEKLrqdGAg4VPYbgbKxo4d22f9+vVPoJYthehxnn766b/++Mc/fg5V/ygiVwzqeWsHsAb1XNrjGTFrSMASXZEBLEIVtodDLYgJqI2Pj3dv2bLl8ZSUFGkkKnq0n/zkJ/c89dRTn6Aei+HwGBRdFzyKx4Gqz1oPbNB1RKeAEbOGBCzRFYuBPqhaEL1/gMGi9tKvv/767qlTp87TeTxCnAruOXPmXPfZZ5/tBlKQkBXJAqj+WXZgD2o2q1zXEXUjI2YNqcESnTUQSCO8aq8OLFu2bImEK2EgUStWrLjD4XBYUTPJ4fJYFF0XbCtTA6SjVgfG6joiEVISsERnmFC7YNyER88rE3BowYIFo2+66ab/0XswQpxKycnJ2W+++eYvUMeyePUejzgpwYAcLLuYAixEbSYSEU4CluiMIailwXBoy6ABdcnJydEvvvjiLahaBiEMZd68eQvuvPPO84CDyPN4TxAseahGde4/Fxik64jESZMaLNERK3AB6gR5l85jAfUu7+DKlSvvnD179ul6D0YIHbknT578o9WrVx9E9aWTeqyeIVibZQO2AF+hwldEM2LWkHc+oiMjgERUrYDeTMDBW2+99WwJV0IQ9corr9xktVo9qN1o8q6xZwjWZtUDQ1Gbi3rrOiJxQiRgifbYUMuD4fDkbQIqBw0alPb73//+Op3HIkRYyMzMHPrEE09cBZTqPRYRUhpqRrIKdUTSQiBX1xGJLpOAJdozCIhHFbfrzQPUv/zyyz9HHaQqhACuueaay+fMmTMKFbLkOb1n0TiyW3QuMEnf4YiukAejaIsZNXsVDnVXJuDATTfddPaYMWOm6j0YIcKM9uKLL/7CYrFohMdsswit4JJhAzAeOBN17I4IcxKwRFtygWT0r73SgOoBAwakL1u2TJYGhWhFamrq4D//+c9L6cGNKg0uuGRYjToqaTFqdUGEMQlYojUaMIzwWBr0AfUvvfTST1BHSwghWvGTn/zkyilTpgwBKpFZrJ6sGlWXtRjoq/NYRDukTYNozQBgPlCr8zhMwIErr7xy2t/+9rff6TwWIcJecXHxmuHDh9+EOkZHjzfQ/qMuAdQbJO9Rl+C/B2mt/N1y1MWM+j6CHzUkPIL6mQVrUVcC2/UbSucYMWtIwBKtWQSkov+xOG673d64b9++x5OTk/vrOA4hIsbPf/7z+x999NEPUQ0ru6s3VgAVmDyome5mVJiyonrm2QcMGGDNyMiIdjqdsVFRUU6TyRQLRGmaZklMTDT16tXLbLPZtJqaGn9lZaWvvr4+eJ0NHo+ntrm5uaG6urq5pKSkqaKiornlNtwtn2NruR0rR4KY0RzdL+tLYKO+w2mfEbOGBCxxrFTgbFTXdj3vHCZg95///OfvX3/99dfoOA4hIorL5SpLS0u7prKy0gzEcPKPYw0VnppRm14aAZPVanVmZmYmzp49u7fdbk/Pzs5OmjFjRkJiYmI/s9mcmpGRYbHb7cEg1NWibH/w9ioqKlzl5eW1brd7365duyq+/PLL+oaGhv2bN2/e+8UXX9R4vd6aQCDQ0HIb0ajAYZQi8ADqe40BvgEK9B1O24yYNSRgiWPNRDW3q0W/2SsNqBk2bFjixo0bn0E9aQohOul///d//+/qq69+EsjixANWM2pXYjNgSU1N7btw4cK+mZmZg6ZMmZI6bty4/klJSZlms1mv2sjm8vLymqampu0ffvhh6c6dO7e89957u3fv3l16+PDhStTMVjRqKc1MeJyj2h0CqO81DlgDrNV3OK0zYtaQgCWOFgucjwo4eh8iu/ezzz67a9asWfN1HocQkcg1ZMiQa7ds2VIBJND5cNGI6iAeGDBgQMr48eMzZ8+ePXT69OkDhw8fPtxqtSZ224hDw9fU1LT9/fff311YWFiwYsWKkuLi4j1er9eFmulxopYVe9oLXzBkOYH1wCp9h3M8I2YNCVjiaKOBqahdKnrOXpXPmjVr0GefffaYTmMQIuJ9+umnH8ybN+93qFqs1gQLzJuAGsAyZsyYvvPmzRt6+umnjz/rrLOGA2mnaLjdpXnr1q2bVq9evfGVV14p+uyzzzbX1NTUocJWPD2rdiuA+n7igTzUkmHYMGLWkIAlgkzAeagHp569rwLAgby8vAelqagQJ2fu3LnXr1y5civqMOjgk72GKhavBryDBw9OO++88yacffbZE2bMmDEM1f+uR9q/f//Wjz/++NtXX301/4MPPtjqcrlqUc95sajnwEh/QQyGLCewDlit73COMGLWkIAlgrKABbQsD+g0Bg0oXbx48dg333zzDzqNQYgeY+3atV9OnDjxDtRMlIbaGVwdExPjPPfcc4cuXbp06oIFC6ZbrVbDHSa8a9euDS+//PKXL7300qr8/PxdqKXDJNRSWyS/MB4dslahZrN0Z8SsIQFLBM0DclDnXunFB1SUlJQ8nJOTM1rHcQjRY5xzzjm/efvtt78EogYPHtzv2muvnX7FFVec1qdPnyF6jy1MNHz00UdfPPfccytffPHFPFTriWTUbsTuanPR3YI1WQ7gK6BI3+FIwDIUCVjfEQ7F7RpQevnll0/7xz/+ca9OYxCix1m1atVXd9xxx6PXXnvteZdccsnpqOVC0YrNmzevf+aZZ959/vnnv62urq5FBa1oIjNoBVCzcg5UM9JNug7GgFlDApYAdSzOLFShq178QMWWLVseGjRo0FgdxyFET+SjZxV0d6vy8vKSp5566r3HHnvsk7KysipU0LITeUuHAdRMnB14D9it20AMmDUkYAlQp7Ono7Zo60EDys8999wxb7zxxkM6jUEIIb7j8OHDu5944onXH3/88ZVlZWU1QG8ir81DgCO9BN8CDusyCANmDQlYIgG1e9CLeperl4Nr16793fjx46frOAYhhDhOeXn5tuXLl//rwQcf/DSgXjT7cPw5iuEseHZhE/AmarPDqR2AAbOGBCwxBpiCfsuDGlA5Z86c3E8//fTPOo1BCCE6VFRU9O1tt9320ttvv70O1d4hnsipzwqgdhaWo2ayTmm9rRGzhh6nrYvwoQEZqPPF9BIAGn/7298u0nEMQgjRoZEjR05+6623lr/77ru/GTlypAPYg5r5j4TXUg11BFoKMFvnsRiCzGAZW2/gHFRjUb3uCA05OTnxJSUlz6AKMYUQIuwFAoHDt9566/PLli17H1WXlUzkzGYlcIp7ZBkxa0RC6hbdJx31xKDXk4IGVP3sZz+bhYQrIUQE0TSt14MPPnjj+o0IooYAACAASURBVPXr75o2bVoqR2azwv3dewDVUHoikKnzWHo0mcEyNr13D3qioqIay8vLn3Q6nfJAF0JEqoa777778Xvvvfc/qL5TCYT3bFYAiEHVYb3OKWgwbcSsITNYxuVENRzUq/5KAyovvfTSiRKuhBARLvaee+656aOPPro9NzfXBhxAPceF6zt5DfXG2o46xSNcxxnRJGAZVzrqHYxerRn8QOD666+fr9PtCyFESJ122mnzCwsL//y9731vDKqpp5fwfZ0NFr2nAZN0HkuPFK6/eNH9+qJvD5eGoUOHDhg/fvxEHccghBAhZbfb019++eVH/vCHP1wCHEQtv4Xra20wZI1G7SgXIRSuv3TRvaJRjfKadbp9Dai98sorJwBROo1BCCG6zW9+85vr//Of/9yclJTkQ3VPD9fXWx9qpm0mstkopML1Fy66Vx9UIaZey4M+s9lsv+SSS6bpdPtCCNHtzjrrrEXr169/YMyYMQmouqxwfM0N1mPFAXKSRgiF4y9bdL/eqINf9VoirJ0+fXpu//79h+t0+0IIcUpkZWWNXLVq1SPz58/PRbVyCMfidw21lDkIGKzzWHoMCVjG1ItTfEzCUTSgacmSJVNQIU8IIXo0m82W9sEHHyy/5pprpqGK3/2EX8jyo84qnIzaACVOkgQs44kBktCvPYM3OjraccEFF0hxuxDCSGL+8pe/PHjLLbcsAPYSfk1JNVRdbgzqfFpxkiRgGU8f1ANIryZ49ZMnTx6QkpKSo9PtCyGEbh544IE777///nOB/YRnyKpFLRVm6zuUyCcBy3h6Axb0qb/SgMaFCxeORO57QgiDuu2222585JFHvkd4hiw/aoVjCrLL+6TIi5zx9AbcOt22H7CcffbZY3S6fSGECAu/+tWvrl+2bNmFhN9yoYaqxUoAxuk8logmActYolFH5Hh0uv3GoUOHZgwdOlR2DwohDO+mm2765Z133rkYtbswnArfNdSB0MNQNbviBEjAMpZEVMjSrf5q4cKFI1rGIIQQhnfvvffefMMNNywA9uk9lmN4UeUksiHpBEnAMpYEwIZ+Acs7d+7cYTrdthBChKU//vGPd7e0rtlP+LwuB2exspGC9xMSLr9IcWokol+48mialjh79uxBOt2+EEKErRdffPG3M2bMyAEOET6vzX5UScl4pG9hl2mBgJ7n/epH08JlqfuUcAKZwHDAij5H5NTNmDGj3xdffPGkDrcdUfz+AFXVNdTV1dPY1ITb48Hv86NpGmaLGbvNRpwjlnink5gYOTrMSOrqGjhUVk51TS11dfU0NTfj9/sxm81ER0cTFxtLYmI8KX164YiVXpGRxuVy7RszZswvNm/e3ISqfdLrDfGxEoAvgA0negVGzBoWvQcgulUGkAOkAbGo86a86FNIWT9lyhQ5guEYbreboo1bKN68jS3bdrBn734OHDhEdW0dTU3NNDU34/X68Pv9aIDJYsYWFUVMdDSxMdH06Z1MZkY6Q3IHMmLYIMaOGSEvrD1IRWU1367JY836Qoo3l7B7zz4qq2upr6/H5XLh9fkhEFDh29wSvp0OEhOc9EtLZWD/LHIH9mfY0FxGjxxGTLQE8nBms9n6vffee/cMGDDgl36/vx71vB0OyaQJGAFsQb9NUhFHZrB6HgswkCPBKrjlVq+jcUA9QRx67733blywYMFCHccRFrbv3MPX367lq2/XUVS0mZ2791JRUYmmmYiKsmKxWLBaLVjMZsxmM5qmEby7BgIBfH4/Pq8Pr9eH2+vB4/Hi9XiIi3MwIDuLKZPGcs5Zp3PGaTNPapxNTc08+ew/2blrLzHR0d+N5QHw+fxYrGbmz53BaXO694zYN9/+kNXr8nG7PZhMpiNjCaBmcCwmpkwcx3lnn9Gt4zh8uJK/v/QaBw6UYjKZ0EzffR5pbnbRKzmJ6669guSkhBO+nU+/WMWrr/+HL79ezbYdu/F4PdhtNuy2KKKiorBaLer2teCxdoH/3je8Hi8utxu324Pb48Hn9ZKQEE//7AzGjRnJ3JlTOG3OdJKTEk/uhyG6zVtvvfXW4sWLHwT6oV/fwmMlAF8DBSfyxUbMGhKweg47MATIBZJR7zKaCI+tvx7AW1ZW9nDv3r0H6DwWXVRV1/D6v9/n3Q9Wsi6/iL37D2AymXA6HMTERGOznXw/P4/HS0NDA5XVtdhtUUybMoGfXHMF559zYqHj7y++xveX/gCTMxGrxdrKZwRwNbvA7+cfzz/G5UvOO7lvoA233v0QD/7+EbRoO1FWK63dnd1uN4GmJu69/w7uvPn6bhlHWXkFZ5x7OQXfrsfidGA2HV+S4vf78FTv554HHuKuW37e5dv47Mtv+dMTz/HRp1/S2NREclIicY5YzGbzSb1Aud0eGhobqa2tJ6BBTv8szpw/h5/96PsMyM444esV3eeuu+565L777nsdVd4RDi/UUajn8hWcwFFrRswaErAiXzQqWA1CFbG7UOdJhZPGiRMnJq9ateoJk8lk03swp9KOnXt47h//4o23P2BryQ4sVjNJiQlE2+2YTKZuedLRNA2Px0Np2WE8Xh/nn7OAhx+4nX5pfbt0PU8//wLX33A3WRlpbT5eTCYT+w8cpH92Ft988hqxMaFdnizeXML00y/EbovC6Yxr8+elaRpV1TWAxqpPX2dAdmZIxwFwzwP/j9/e+QC5I4aiadDaUDRNY2vJDm75zXU88NubO33dLpebm+96kGf/8TLuZjdpffsQFRUV8vuHpmn4fD5q6+opLztMWnpfHrjnZq689IKQ3o4IicAZZ5zx0w8//HArkIr+9VgB1CzWGmBdl7/YgFkjXHYqiK6zAqOBc1Gnn0cDNYRfuAJoyMnJyTBSuAoEAjy0/Clmnfk9fv/HxygrP0xWZjoZ6X2JiY5G07Rue8IJBAJYLBb6pfelX1oKr7z+DnPPWsJX36zt0vVMmjCG5KQEPJ62V5f9fj+pKX3YtnM3X3y1+mSHfpyVX3xDfWMjcXGOdn9egUCAeGcc1TU13TIOr9fHB598SWLflJbfXeuf5/P5sNntjB01otPXvbF4K3POWsKfHvsrCU4n/bP7YbVau+X+EQgEMJlMJMQ7GTx4IM3NzXz/B7/gldfeCfltiZOmvfrqq7c4nU4bUIf+KxEaqo53MNLLsFMkYEWmQcBi1FlRdqCaE5iyPYXco0aNMtQ6xLJHnuLmX9+Bx+Mhd2B/EuKd7b4wd4dg0BqU05+DpWWc/b0f8NWqzr/xHDVsMEMG5VBTW9fu55lMJnxeL6vW5J/skI+TX1iMqZOzzZqmEfAHKCjaFPJxFG8pYdv2XTg7CHpNTc1kZqQxa/qkTl3vV6vWMv/cy8krKGLQoIHERNvx+0/NncTvD9C7VzLRjhgef+Zv+Hx6bC4W7XE6nZkvvfTSdUAV+s9ggTpmzYl6DRIdkIAVWVKBRcBcIB516rkL/d/ZtCcA2GbOnGmYgOX3+3nr3Y9w9k0lId6p+9S43+8nIz0Nn9fHku//lD1793fq68xmM9OmjKe+obHdzwsEAtijosgr2BiK4f6X2+Nh4+YSnHGOTn+NwxFLUfGWkI4DYM26Qqqqq4mKar9WrqKqmikTxpCa0rvD68wvKua8Jf9DfX0D/bMzCQQCp/y+4vf7ccY5qKmrp6a2/pTetuics846a9FPf/rT04GD6P+araFWSXKRLgQdkh9QZIgCJgBDUc3ealHBJZyDVZDPZrM5+vXrl6P3QE6VZpcbr9eHzda1GhqPx0NTswu324PX5yXgD/x3xkvT1EyRxWLGZrMRbbdhNne+75/P5yM9LZVt23fxk1/ewTsrnu/U182dNZXHn/4bfr9f7d5rg9MZx6YtJezZd4DMfmmdHld7Nm/Zxs5de4mN6fxqhMMRw7btu9ixcw8D+oeuDmvNunwslvafLgOBAH6/n7mzpnZ4fVVV1Vz2w1/Q2NhIZkZ6p2ePXC4XdfUNeDxe/H4/fn8wlKmnA00DTTNhMmmYTCbsNhsxMdFERbW2SaFl3IDFbNH9jYBo22OPPfbLt99+u2j37t01qBkkPX9ZLtRGqoGotg2iDRKwwt9AVBfdJNSxBcE+VpEQrgA8Y8aMScjKyjLMgaEBwGRqf9dXAPC4PdTU1tLscmMymYh3xpHWN4WkhASSkhJwxjmwWi0EAuBxu6mtr6eyqoay8goOHiqlobEJuy2KpMRELJaOd5n5fD6yszL4z3uf8Pw/XuHqKy7u8HuZMnEsuQOz2b13PwnxzjY/z263cfBQGevzN4QsYOUVFlNZVU2/tNROf02U1crBQ+XkFRaHLGA1NTWTV1TcYdBrdrlI75vKnFnTOrzOG27/PcWbtjI4d2C74SpYq3e4ooqmpmb69OnF+LGj6J/Zj7S0VBITnNhsNkwmE/5AALfLpQrYD1ey/8Ah9h8oZd+Bg+w/UIo/oGarnHEOTKbvLlerViCR8pRiSM4XX3zxumnTpt0NOND/+d+L2lwlAasdErDClw1VYzUEtTW2msgKVkHNTqezN2pJ0xA04NjXquCus6amZiqrqvH7/ST3Smbc2FGMGTmUcaNHMHjQAPql9aVXryQsbcxOeTxeDh4qY9eefXy9ah2ffP41q9bkocF/l6XaC1omk0ZScgJ/evJ5Lj5/IQ5HbLvfiyM2hskTx1JUvKXdgKVpGm63h7XrCkPWiyqvcCM+r6/dmbNjmc1mXG43+YUbufDcM0MyjsKNm9m5cw9xHSxVVlXVsOD02fTP6tfu573/8ef846UVZGf2w+9vu6zGbDZRW1fP4Yoqpkwcx4XnnsXcWVMZPjS30z+Tmto6duzcQ1HxFlavLeDLb9awbfsu/H4/vXslYbdHqd+dxyMzWGFu6tSpc3/4wx9+8uyzz36B6o+lZ01WE5CCaiGxR8dxhDUJWOEpC7UzMAm1e8RH5AWrIHffvn37ELnj77JAIIDH6/3vrIDH46GispqGxkYy+qVx9lmnM3PaRGbPmMzQwblYLJ1f6rNaLWRmpP23kPrGX/2IN9/+gIcf/Str1uWT1S8dk7nt9g+BQIDkpEQ2FG9mxZvv8v3LLurwNmfNmMxzf/9Xh59ns0eRV1jc6e+lIxuKt3QYalrjiI2hcEPoCt3X5hVRV1dPYryz3XUZt8fDzE4Ut//p8eewmC3ttmEwm01UVdXg8nh44J5buO7ay7Hbur4JN94Zx9jRwxk7ejhXXnoB5Ycr+OjTr3jj7fdZ+cUq9h04hL+2hrS+KXICQAR49NFHf7pixYqC6upqvbu8B293EBKw2iQBK/xMQrVf8BG5s1bfMXfuXEO1jLbbovD7fZTv2U9lVTXR0dFMHDeK889ZwJnz55A7MDtkt2U2mbhg8ZksPGMu1/zsZv614m36d6JxpC0qitff+qBTAWvm1Elk9EujvqGh3WWyeKeTzSXb2LVnL9mZJ7enYceuvWzbsZuYLtRfBcXGRrOlZAelZYdJ6dPrpMYBsHZdgVqqa+dzPB4PyUlJzOug/urbNfl89e1aUvv0bqenl5rpbGpq5m9/WR7S7vS9eyVz6cWLufTixaxeV8Brb75LfmExP/2fK0PS7FZ0r+jo6NTHH3986WWXXfYYKmDpqRE1kxaPahEkjiEBK3w4gZmoKdc69DszMJQCgKVPnz6hKcqJEGazmd/84kc8GRvL5AmjmT9vJmfMO7ljazpit9v451//H+UVlXz51Roy+vVtd/kpOSmR9flFbNuxi5wB2e1ed9/U3kwYN4o3336/3YBli7JysLScdXkbTjpg5RdspLS0nLTUPq3+fzCctFY3ZLfb2X/gEPmFG1lw+uyTGkdNbR2FGzZ3vDxYXcuUSWMZOWJou5/3/sefUVfXQErvtoNfIAD7D5Zx069+1K1H/0waP5pJ40d32/WL7rF06dILly9f/uHatWsPoppL6zWL5UPVgw0E1us0hrCm95ZPoWSiGob2Q81aRfKS4LGsSUlJhmnREHTpRefw+Xsv84ff3dbt4epoj/3hHmJjY2hqar/frM0WRWn5Yb7uZF+sWTMm4XK72y2ENplMuF0uVq8r7NKYW7O+cAMet6fVnXuapuFyufH6fJhMx4/HYrHQ3NxMfgiWK/MLN7Jrz952l880TaOxqYlZ0yd3+KAt3LC5wwOXG5uaSU3pzY9/ePkJjFgYgPWJJ564iiNHoempGeiPZIlWyQ9Ff6OAM1Gd2XvaNKsvJSXFNmzYMCnuOEVyc/pz0XkLKS0rbzcMqSNT/OR3sinnnBlT6NMrmabm9oNbbGwseQUbujTm1hQWbcLhiG11Ga2hoZEJ40bRPyuD+vpWenQFAkRHR5NfdPIBa826QurrG9ttieHxeolzxDK3g92DLpebfQcOdrjsWV/fwJiRw8hI79rRRsI4Jk6cOHPJkiVTgXL0fTPuRrVsaH9nh0FJwNLXDGAa6p1IIz1n1irIm5KSEuN0OuVYhVPovLPnY7ZY8HrbPuIGICbazs5dnatPHZw7gNEjh3XYjNIZF8uWku3s2Hnida+HSsvZWrKTmJjWZ3pqautYctFiJk8cS3VN613mY6LtbN6yvcMu9B1Zn78Bs7n9p8na2jqGDM5l/Nj2j8c5XFFFTXUt1g76aXk8Hvq2sTQqRNCyZcuWopYH23+gd69gE7aBOo4hbEnA0ocVWAiMQNVbeeh54QrAY7PZHBioRUM4mDh+NAOyM2lsbGr38+x2OwcOltLY1P7nBc2cNon6+ga0du6qUVFRlJYdZs36E18mLNywif2HSom2Hx+wvF4fsbExzJoxiZHDhuDxeFqdqYuJiWH3vv0UbTzxNj2VVdWqPUVC++0pamvrmTF1AlHWtpt5AjS7mlt2l3Z8211pTSGMKTMzc8RVV101HTWLpecdphnoi5xPeBx5FJ96McA5qLqrGtQaek8MV6CCYyLqexanSGJCPINyBtDYQR2W1WqhsqqasrLKTl3vnFlTiIuLxe1xt/k5JrMZr9fH2rwTD1h5BcU0N7tarb+qb2ggKzOd1D69yRmQic1ua7VRp9VqoaG+8aTqsNbnbWDPvgPYbW3XTHm9XqxRFubNnt7h9ZlN5g53IwJERVnZd+BgF0crjOj+++9fijrdo+0HZffzoIrdDVdr2xEJWKdWAuqQ5t6oYvaezj9kyBC9txIbUnZWP1zu9p9zzSYTzS43NXWdW0abNH40w4fkUlff0PYnBQI44xysz994wgdbFxRuJNpua7X+qrGxieFD1DmzuTn9yUjvS2Pj8XVYgUAAi9VMfuGJn4/47bp8Ghoa2mz6ClDf0Mig3IFMnzqhw+tLSkzA4YjF522/LtkZ52DtugJKtu/q6pCFwaSlpQ255pprZqJvLZaGmiiQgHUMCVinTi/gbCAONXPVU2etvmPkyJESsHTQKzkRn7f98+00TcPr9dHUySVCdfjzRKqra9v9vNiYaLaWbKdk+85OjzeourqWTVu3tVp/FewWP2b0cEDN1A0dnENDY+szdTHR0RRv3kpTs6vL4wDVYNRut7f5SNU0jarqGqZNGoejE/26nE4H6WmpNLnan1m02+1U19SybPmTJzJsYTC33377eajX8s4daNk9XKjO7l3vDNyDScA6NXqhdgraUDVXhghXQCAuLq79PemiWyQ440Br/9gcNPD7fXg8nk5f7+wZk4myRbV7fp7dbqP0cAVrT6AOa0PxFvbsO0hszPGryh6PF0dsDGNHDv/vv40eOazNWrM4Ryw7d+9j0+atXR7HodLDFG/aSnxcXJuf4/P50NCYO7Pjw52Dhg7OUXVs7TwDBAIB0tP68n8vvcHyx57tyrCFAWVnZ486++yzxwEV6Pfa4kWFK9lNeBQJWN3v6HDVgHHCFQBRUVFdP99DnLTgAcAd5CsI0KWlvBlTJzCgfyaNbcwagSrQ1lAzQF1VsGETDQ2NWMzH1181NjaRkZHGyBGD//tvY0cNw2qzthr4LBYLNTV1FGzY3OVxrM0rZN+BQ9jtbXc3b2xqIjsrgzkzp3T6eufOnEqU1drhMqHVaqF3ryRu++1D/PrW+6is6mkdXEQo3XrrrYtQtVB6HigZAAzVVLojErC6VwJwFgYNVwBWq1V2luhA04J7/UL7fJsQ72TS+DFUVrddQhgIBHDExpBXsLHdbvKtySvciNlsJtDKuBsamxg2OPc7h06PHT2c9NRUmttYBgwE/OQVdL0Oa826AlwuV5vnRGoaVFbWMHnCGHr1Sur09Z42Zzojhg+hoqq63T5lfr+fmJho+qb25s9PPs+8hUt46tn/a73vlzC8adOmzRg/fvwQ9O2l6ELVF8ub6hYSsLpPDKoVgx2DhisgYDabJWDpovveyM6ZMQXQ2l1+dMTGsHX7DjZv3d7p621qaqZ4U0nr/a9auqWPHT38O/+cnpbK4NwBNLSxTBgdbWdj8dZ2lzRbsy6vEEdsbJuze35/AJ/fz5xZnZ+9AtVB/6qlF1FdXdP+8i0qZFmtVnIGZLN3/0F+dsOdzFl4Cb976FHWh6CZq+hRLNddd90soB59lwnjgFSdbj/sSMDqHjZUuHJgjJqrAGoXiQfVMLUGOAwcbGpqar85kPgOfyBAbV09ZeUVHDxUxoFDZZSWHaaqugaXS8+d2EfMmTmZfmltzxqBWqKsOFzJ2vWdXyYs3lzCzt17iXMcvy/C6/ESExPN2NHHN/McPWoY9W3sbIyLc7Btx+4u7cjbs/cAxZu3tXs8TrPLRXp6KvNmt9+9vTXXXHUJEyeM5mBpWYf9rgKBAH6/n17JiQzIzmTX7r3cff9yFl34AxZdeBV//NMzrMvf0GFYEz3fkiVL5iYkJCSjZpL0EECdbywBq4Uc9hx6GjAfVXtVTc8LVwHUbhU3KjwGUI1To9LT021ZWVlJNpstQdO0OIfD4Zo0adIAPQcbznw+HxuKt1KwYRNbt+1g9579VFRWUVvXQFNTk+rEHgCTxYwtKoq42Fji4mJJSkwgLbUPqX1TyM5Ip39WBpkZacQeFQiccQ68HewiPFGZGemMHTWM9z76jOg2ztXTNNBMJtbmFXLl0gs6db0FGzZRU1uLI/b45+fm5mb6paUyeuTxhymPGz2cqKgofD7/cV3XrRYLh0rLKdiwiSGDOtdses36Ag4eKqVfO0fVVFXVcMZps8nO7HpNr81m44F7buGs879PY2Mj0dHRHQak4P8nJyaQlJiAy+Xm869W88EnX9C7VzIjhg1mxtSJzJs9lQljR2G3yyqN0cTExPS95JJLxj/99NOfonb06ZG63S23LZCA1R1mofqBVNFzwpUX9a6oFjXr6Zw1a1ZySkrKpGnTpiWPHz8+w2KxZA8bNiw6Pj7eiercLvetNqzNK+LNtz/g61Xr2FyyneqaWvw+P5qmOqFbrVYsZhOaSSO4FOf3+/F6vXg8XjzB4GU2YbVYVOBKS2FAdiZDBg1k5tSJ7Nqz7zuBK9RmTJvEW+9+pBpnthIOAgF1XE3hhk14PF6s1o7vDgWFxS0/h+MfNvUNjUyaOJY+vZOP+78xo4fTp3cybo+baPN3A5+ppbVDfsFGLrng7E59b2vWF+L3B1o2CbT+GuVye5g1fVKnrq81p82ext23/pI77nyA/rn9sVosnZqFCn6GzRb13+N03G4Pq9fm8dmXq/jzk88zbEgOUyePZ/68mUwaPxpnnOycN4prrrlm5tNPP/0J+hW7u1G1x4mo10BDkxfB0BoDDCPy+1xpqFBVD9RrmhY7ceLEvhMnTpx13nnn5WRnZ4/IycnpDbR9hog4zhdfr+aJv/yDDz75gtraOhyxscTHx5EePHeuM2eotAi+GAcAj9vN5i3byC/YiM/nJybGTmJCPH1T+3S5yLyz5sycTGJiAm63p83wFBfnoGT7bjZt2caoEUPavT6/38+G4q1tHoTc2NjI6BHHz14BDMzOJDenP2vXFx5/vI6mER1to2hj53YSBoC8gg3ExrQ9q+Rxe+iVnMS8OV1fHjza7Tf+lP0HDvLkE8+RNTAbu91+Qr+vqCgrfXr3AtSs6MZNW1m9Np+n/vpPBucOYNLEMSw8Yx5nnDaz3aapIvJNmDBhQm5ubkZJSUkVoEcPQh+qNCYFCVgSsEKoPzAZFUoi9fgbDVWQX2M2m+1z587NOfPMM8dedNFFY7KysoYgR96ckLLyCu6494/837/ewOPxkNY3hd7Jifj9J/4mMzjLo6GWnGy2I0tCPp+vZbms+97EjhoxlBHDBrMur4jebeyii7JaKS2rYG1eYYcBa+v2nZTs3EWc4/jZFp/Ph91uZ/yYtg9THjViKCs//6bVscTFxbFl2w727T/Y7rIfQMm2nWzash1HK3VgQVU1NUyeOI5Rw9v/njrjieW/wxEbyx/+9BTJSYn0Sk46qVBsNpv/ez0+n49de/ZRUFTMs397mbGjR3Dh4rO4cukFbf7ORMSLueCCC8YuW7bsDVTQ0WMmyw8cP9VsQFLkHhrxwBzUMlqkHdysoR6ElcDBESNGxP/+978/f/Pmzb//8MMPH73hhht+kJWVNQ4JVydk5ZermLXgYv7y/Av0bilUjrJaTypcdcRsNmO1dm7J6USZTCZmTJtAQ2Nju+0GCPg71XC0oKiYioqqVmfD3G4PqSl9GDNqeCtfqYwbPRyr1dJqOImyWjl0qJz8ok0djmPt+kLKyyvarGHSNI3GpmZmn8Ty4LEe+t2tPPfkw8TGxLJ12w5cLhcm08k9hQQCaokzId5JdlYG6X1T2LR5K7+5/XfMWnAxjzz2F/xSGN8jLV26dDLqtb17pq875kYCFiABKxRMwDxUoXczkROugudHlQGV559//rD33nvvl0VFRf/v1ltv/XlOTs5YnccX8V545d8suvBq9u0/xOBBA4mKiuq2JTs9zJkxhWi7HW87LRBiY2Mo2LC5wx2QefnFuF3uVnfV1dbVMyi3P5kZbfcwHDt6OMnJiao+7RgWi5nGpuZO9cNas64AaHu18L0OOAAAIABJREFU1uv1EudwMPcEdg+25+rLL+KLD17hJ9dcSVOzi207dre5M7KrgmGrT+9eDMrJpvxwBTfcfB+zF1zMqjV5IbkNET5GjRo1dujQoVmoHd168KHKRwxfQiIB6+RNRW1LrSUywlVwxqoMqLz66qvHFxQU3Pnaa689smDBgsWo4kRxkl55/T9cee2viIm2k5Ge2qlgpaFqkZpdLmpq6ygtO8y+A4fYs3c/u/fuZ8/e/ezdf5ADB0spK6+gqrqGhoZGXC43Xq/3lG/VnzRhDINyBlBXV9/m58Q5HOzYuZviDo6rKSre0nb9VVMzI4e1vxw3KKc/A/tntRlKoqPtFHbQ0d3r9ZJfVEx0jL3N/lfVtbUMG5LD+LEj272uE5GZkcbjj9zLe6//neuuvRKHI5Zde/axb/9BGhqb8Pv9XSnTO04gECAQgOSkRHJzB7B2fSELz/8+L694O3TfhAgHtoULFw5HvxZBPiAamcWSGqyT1B8YSWSEq+D4KoDmJUuWTLz11lvPGzVq1HQ9B9UTfbsmn6t+fANJCU6SkhLxdRCuTJpGs8tF+eFKfD4/vXslkZWRTt++qSTGO7HZrJhMJvz+AF6fl6bmZurqGqiurqGyoprqulqqa5toqG/AYrXgiI3BERuDzWbr1tAVEx3NlIljKNy4icSE+FZvy2IxU1Vaw9q8Da32sALYf6CUkm07Wq178vsDRFmtjBvd9vKguh0Lw4cNYtXqPJKTjn+PEBcby+at26iqriExIb7V69i0ZTsl23YS38auO03TqKttYNqUCURZu6+927gxIxg3ZgT79h/i3+9+xCeffUV+4Ub27juIBiQkxBMbE4PFYj6h32/wa7Kz+nG4oorLfvgLAsCSCzu3y1KEvzPOOGPEww8//G/0qQcOoCZvkoGun/jeg0jAOnExwHTUsqCP8A5YJtR0cfncuXOH3XHHHZfMmzdvnt6D6onqGxq59vpb0DSN5JZC47YEWxzs3ncAR2wMZ591OgtOn8WEsaPon9WPuA621zc1NVNdU8vB0jL27D3A9p272bptJ1tLVE8tn8/XYSPLkzVn5lSe+d+X8Pn8rdYNBb/HNesLufaqJa1eR0FRMQcPldO79/GF1x6Ph169Ehk9aliHYxk3egTPmV4hEAgcVxdmt9vYt/8gBUWb2jw7cM36Aioqq+mX3nqfRJ/PhzXKekLNRU9Ev/RUrrvmcq675nJ279nPZ1+uYuWXq1i7vpBt23fj9XmJd8YRF+fodJuHo/l8fpKTEjGZTVz949+Qmd6XaVPGd9N3I06lWbNmjYqOju7d1NTkRp+ja7yA4XdSSMA6cdNR22DDuSVDcDnwYFJSUszDDz/8g6uuuupyVL2Y6AYPPPwERUXFDBmS0264MplMNDe72HfgEOcsPJ2bf/ljpkzqWtlbdLSd6Gg7fVP7MO6o2SG/38/fX3iNG267j3hnHBZL9z3MZ82cTHZmP+rq69vsfB7vjKOgqJhmlxu77fjDk9cXbKCxqRGLufdx/1dbV8+4MSMYlNO/w7GMHTWcxAQnXq/vuGJ5q9VCbV0deYUb2w5YawtaDWdBdfUNDMrpz/QpEzocS6hlZaZz5dILuXLphRyurOKrb9ay8otVfLs2j+LNJTQ2NuOIjSYhPr5LGxz8fj9JCQk0NDTy0xvu5IsPXm23g72IDHa7ve+CBQsGvPHGG0XoE7CC7RrMLX82JKnBOjFDgBzCe2kwOGu17+qrr55QXFz8p6uuuupqJFx1m5279vL8P14hPS0Vv6/tZUFN03C5XBwsLeP2m37G6y883eVw1R6TycSgQQPw+f3dulsRoHdyEhPHjaK6uqbNYBITY2fnrj1t9qIqKNpETHTr9VdNzc2MHD64UzNxw4bk0j87o806LLvdRn5Rcav/53K5yd+wCUdc6+0ZNE2jurqGaZPH6x5AeiUlcu6i+Sx/8E4+fvsF3nzpr9x6w3WMHT2Curp6du7eS319gzrwuxPPTj6fj/S+qeTnbeDPTz7f/d+AOCWmT58+DNV2Rw9e1CpP6+vxBiEBq+tiUf2umtCvW25HTEB5r169PP/85z9/9txzzy1LSUmRI2u62T9eep1DpWXEOmLbvWMECLDvQCm/+ukPuee2X3XLWOpq61peYLs//8+aMRm3x9NmIb/VYqWquoa1645v11BZVcPmrdvbDC0mk4mxo9ruf3U0u93GsCG5NDa1fvBzbEwMmzaV0NjUfNz/FW3czI6du4lrYxw+n48AGnNnnZrlwc6KttuZPWMy99z+Kz548x+88fJf+MVPf0hcXBzbd+6mvr6x08vEvVN68bcXV1BRafj+kD3C3Llz+wN29GnX4Gu57TgdbjtsSMDqukmoHRLh2JIhOJ49kydPTs3Ly3vwsssu+56uIzIIj8fDB598Qbwzrt3lGU3TKC+vZMrEsTxwz83dNh5/gDZ3woXa3FlTSe3Tu81WDCaTCbPJzNr84w9+Ltq4mb37D7bad8rj8ZCYEN/q+YNtGTdqBD5f67vtYmKi2bVnP8Wbjt/RuHp9AVXVNW0upzY2NdM/qx+zZ0zu9FhONbPZzPQpE/jDff+/vTsPb6u88/7/lmRJlvfd2fc9JGSFsIctYSk0ZSnQTmnn6XQG6MM03adA1xTa+dEOU1qWByjd2AotUChpCYHQkEAIZCd7HCdxHO/7KlnS+f1xW7UT7NiJZR/Z+ryuS1dCsH1u2fI5H93393zv7/Dma8/wnW/8X4LhEEeLS3q1qXRGeioFBYd5ZeXqARqx9KeJEydOTU9PT8fMJtnBQZy3alDAOjWjgSnYd/vryTgxjU4P33bbbRds2LDhwVGjRvXurb/02dYdu9m3v4CMjJOfT8Jhi9ZWP3fe9vl+nV0KBAKmyH0AZrAmTxzHmbOmU1vX9TKhZVntdVi7aWn1H/f/tm7fSVNjI+4u7spraGxi/LjRTJ82uddjmXPmTFJSk2lr+/g1xeNxU1tX12XD0Q83b8fZzYyfw+GguqaWsxfMGTQd0EeNGMaKe77Gyj/9lulTJ1N0tARXj9vkOHA5naxZ+96AjFH6V0ZGRt4555wzEvv6YVmYfQnjlgJW77kwS4NBYq9oz4nZoqf6oYce+tdHHnnkXuJ87Xugbduxi4aGJlw9zBQ0NjUxedJ4llx6Ub+Op7a2jkAg0L5hdP+74LyzaW5pxbK6Xo3wtddhbTuhBmrL9l14T9w/sF1LSytnTJ+K19P7ssEzZkxh3JhRNDV1sUxoQYIrgS3bPjrun5ubWti2YzcZ6V2H43A4TCgYirnlwd6YP3cWf3vpd4wfN5qKysoeA3dGRhq79x7ochlVBh3ntGnTJmJvwLJjP8SYoYDVezOAXEzRYCzNXjmB2szMTP+6devuvuOOO/7N7gHFowMFhwgGgz0uxTQ2NTFz+mQy0vu3NKG4pKzXbRqiMZN28QXnkJGRTltb1+89PG43tXX1/+yUDtDc3MKu3ftJ8n08YDkcDoKh0HF3R/ZGakoyM6dNoambOiyfz8tHu/YdN8O1ZftOCg8V4etiHAB+v5+RI4YNWHuGaMvJzuTn991DS0uAtpPc2Qrg9XgoK6vgcFHxAI1O+tOll16aj5kcsKNeOFKHFbfdChSwescHzCY2w1VVXl5eeP369T8877zzLrV7QPGqrKIKl7unJRgIhaweNxyOhsNHivF6Pt4S4UQOhyMqL+h5c85g+pSJ1Nc3dPsxiV4Pm7Z01GHt2rOfQ0VHSe6ig3sg0EZaagpnzu59/VXE3DkzaPX7uwyOKSnJHDx0hH0FHf0PN27aRl19Q7f1V1U1dcybcwZjx4w85bHEiqWXXcg5Z8+jprbupB/ndDrwBwJUq9B9SMjOzh6PadNgZ8Dq+hbhOKCA1TtnYu6GOPmGagPLCVTk5+cnrFu37r7p06dHb/dZOWUtLa24XT2/UXNgdduSIFrC4TC79uzvdkYmwuly0dTcQmVVdZ+P6XYncM5Z82lo6v6u8JTkJHbs2ktjk1mx2LpjN3V19Xi6WAJsam5h7JhRzJwx5ZTHMmf2TFKSkmhra/vY//O63VRV17CtUx3Wh1t2kOj1dDuTF/AHYrq4vbfmz5lFS3PXM3udhS2LQODj3zsZfKZOnTps2LBhSdhT1hJGAUt6kA5MJbZmr1xA5ejRo5Pef//9+ydPnjzH7gHFu1Ao1OultnA3dUrRsnnrR3y0ax+pKSfvBO90OGhrC1AfpU2FL7pg0Um350lOTqLwUBE7du4FTIG7y+nq8m7H5uZmZk6fQkrSqfecmj1zOqNHjei6jsjhIBwOs7V94+e6+kZ27NzTbdf8QKCNnOzsQVl/daKszPSTNr+F9j1OHI5+bU4rAycrKyt72rRpeZgboAaahblW+Yida+eAUsDq2SxMCo+Vt3ROoGrkyJGJH3zwwc/Gjh178l1wZUD0el84h4O6uu6X0aLht8/8mebm5i5nho4fioNQOExTU3RqYM9bNJ8J48bQ0E1gc7vdNDQ2sXO3CVi7du/H5+u6yXSr38+82Sfff7A7WZnpzJg2udvn5fV42N7e9HTXnn0cOlLUZR0YQE1tHbNnTWPWGYP/18zf1gaOnts1JLgSetymSQaNJLfbnY/p2zjQIifEFOJ0FksB6+TSMR3bm4mNBO4EGtPT04Pr16//QX5+/kS7BySGz+ejLdhzuxl3govDR4722zg2btrGH579MyOG5/UY+BwOB1hQUVEVlWNnpKexaOFc6uobuuxDZVkWXq+bffsLKSuv5FDRUVK6mGVrCwZJTUlh7pzT7zIyd/bMbhuOpqWZJpxtgTZ27T1Ac3ML7oSPh1GHwyz9XnjeWTHxy99XBwuP9Bi6g8EgGRlpjBze9X6MMvjMmzcvHXuajYK5ZvmwZ7se2ylgndwszAsjFmavHJh3IbUrV678ztixY7UsGEOG5eX0uPwCkJqSws49+zl6rDTqY6itq+c//vM7YIHX27vzmdfr4cjRY1Ebw0Xnnw2W1W2T05SkJPYdOMif//I3/P5Aly0YWltaGT1qOLP7MGs0d85MkpKSCHYRer0eNzU1tax/fxM7d+3Dl5iI1UUNcDAYIi0tZdDePdhZVXUt69/7gPQeZqYaG5sZN3YUuTmZAzQy6W9z5sxJx75rvQPwEKd3EipgdS8ViPQQsfsNrAPTf6v897///e3nnnvuxTaPR04wcfxYElwJPe795/P5KCoq5tWVb0T1+I1NTVz/2dvYtWc/w4fldbttzcfHk8jO3fu6bMx5Oi449yxGDM+nubnrPkopKSkcKDjEb5/6U7fLcg2NTUyfOrnbvlS9MWf2DEYOz++yu7zD4cDr9fL7Z19k245dpKV1HTpq6xqYPnUy8+fOOu1xxIoHH/kNh4uKSUnpvi2RwwFNzc2cecaMARyZ9Defzzcccw2x405CCxOwer6leQhSwOreVMxmlXZtM3CiYytWrLjuc5/73E12D0Q+7oyZ00hJSSIc7mkWyyI9PY0HH/5tj7fM99b+g4dYuuxW1q57n3FjRvU6XIGZUfto9z7Wb/gwKmMZPWo48+bMoq6+vsv/73I5aWltpaS0rNumly2tfs6c1beLfH5uDtMmT+yyHszhcJCc5OOtt9dx6MhRUpI/HjocDgcNjY2cu2gBni66zJ+OjR9u5aIrb+JTt/w7j/3mWUpKy6PydXvy2utrePDhJxmen3fSj2trC5GclMwVl/dvE1wZWD6fLx/7rvUW4EZLhNKJm47ZK7s5gbLFixefcc8993zF7sFI1+bOnsHkSROo7UUBe1ZmBoeOFPGZ//OVLlsJnIrHf/ssl179GbZs28nECWN7V2jfidudgN8f4PmXXuvTODq76LyzaW3tug+VZVm4XC58vsQu304Hg0GSk33Mm3N6Be6dnTl7Rrd1WAAuVwIOHF1u2hgKhfB4PFxy0Tl9HkfEw48/xdq/r+KNNev48te+y6Wf+Axfv+vHvPPuB1E7xoke/fXTfO5Ly/F4PST5Ert9fTgcDsorKlk4/0zOP3dhv41HBt748eM9brMXlR0zWGHM9TQ671IGGQWsrk0EMrG/75UDaMzIyPC89NJL30Y/r5jl8bhZcsn51NbV97g9TTgcZszokaxes44rr/sC23bsOaVjVVXV8IfnXmLJss9xx1e/i7/Vz9jRI/85c+V0OvH7AzQ2Nfdqk9/8vGxeXbk6arVYiy9cRGZWBq2tp35nuD8QYMSwfObO7vsy1bw5Z+BLTOy2Ns7lcuJ0Orq86jQ2NjFl4njOW7Sgz+OIaAsFSR0+gpHD8xk/dhTVNbU8+MhvWHbzl7jsmn/h3vt/xeo166muqe3TcQKBNl5btYbrPvMffOWb3yfR4zEtGk4ysxkMhWj1B7jzts8PyP6VMnBGjhzpyc/P92BPoXsYszwYlzNYcVl41guTsT9cgXlxVj/zzDPfzsjIGGf3YOTkbr3leh77zbM0NTX3qpnohHGjeXfDJj5xw79yw6eu4vKLz2fmjCnkZGWS2D7b0NLcQk1tPUXFJWz/aDcfbtnOB5u2sXf/QTxuN+PGjMTpdP4zRDidTpqamnF73GRmplNVXXvSmQuA5CQf+wsO8+vf/ZEf3v3VPn8fzpgxldkzp7Fpyw5yvae2OXJ9fRML551Jfl5un8cxd/ZM8vNy8fv9+Hw9d9mPcDgc1NTVc8OnriYl+dT7cHXHnZCAZVn//FmkpaaQnpZKIBDgw83bePud90hLTWHs6JFMnTKRqZPHM37cGEaNGE5+XjYZGen4EhPxeNw4HU7CVhi/P0BTUzOl5ZUUHDzMR7v3sv69D9m6YydtbUFGjxpBQoKLUKj7a6vL6aSg8Ag3XXc1yz6xJGrPV2JDUlJSUmpqaiLQysBf88Ptx4zLGiwFrI8bBuRhT9+QzpxA8fLly5deeeWVV9s8FumFCePHcOtnruO/f/YwU6dOOmktVOQiO2b0CBobm3jkiT/wu6dfID8vl/y8HHw+H2ErTHNTC1XVNVRV19DY2EQoFCYzI40xI0fgdDmPu2A7nU4aG5soPlbKn55+lHFjR3HxVTfjTnCdtHFkOGyRn5fDH559kX/93I2MGzOqz9+LC85dyJq175Kb0/uAZVkWLa2tfbp7sLMxo0cwedJ43t3wYY9d7TuLhJGLL4je8iDQZci1LAu3201ebjZ5udkEg0FKy8vZV1DIi39pw5voxetxk5TkIy0lFV9SIokeD06Xk3DIosXfSmNjE7V19TQ3t9Da6ic1NZnc7CwS2gPdyW68cLmclJRWMHrUcP6/H98d1ecrMSPZ4/EkAY3YM5PkIE5XXxSwPm48pvtsGPvuHnQAdePHj8974IEH7rRpDHIavr38Nl557U2Kio8xasSwHls3hMNhkpJ8jEnyEQqFaGhspLKymmAohMMBLpcLr8dDcpKP1JTk45b8Ol+wXU4ntfUNlJaWc+8PvsX1n7wSgIsvPJfX33ibcWNGn7SDfFpqCvsOHOSJ3z3Hj7/7jT5+F2Dx+Yv4edLjBIPBXncFt8IWiYneU97g+WRmnzGNN99ed0qf09zSwrgxo7kwytvj9KaNR0JCAqkpKaSmpPwzPIcti3AoRE1dLZXVYcKhMBYWDhw4XU7cCQn4fImkJCd1+/roisvlpKKiGn8gwG8f/TmjRqr31RDldTqdXuxZIrQw4SouA1ZcPumT8AKjMdsK2FmIYAG1v/vd774EnP696jLgMjMzeOyX99EWaKOqqgaXq/dLUy6XiySfj8zMdHJzssjJziIzI52kJB8JCQnd1lO5XE7KyiuprqnjwZ//iLu+8eV//r+7vn4HLlcCLf6u2yZ0ZjW30lDf2Ovxnsyis+YxdcrEf+472BuBtjby87I5Mwr1VxHzzjwDj9vd6+J/h8NBTU0tZy0485Rm33ojJyuLxroGXD3UxXUei9PpJMHlwuPxkJyURFpqChkZaWRmpJORkUZaago+XyLuk7w+uuJyOTlWWk5jcwtPPfELFl+w6HSflsS+BIfD4cKeIncw19K4LOxTwDreGCADe+uvHEDpTTfddN4FF1xwmY3jkNN0/jkL+c2jP6OqpobKyipcrv75NXM4HFiWxYGDh0lOSeZPTz3Cnf/x+eM+5uyFc/k/t97IkaLiLi/Azva9+fbuK2DmvNncefu/RmVsXq+HRQvnUl1T2+s9GuvqG5g8YTzjx46OyhjA9MPKzsrs9ebF4XCYQFuwX/Ye/OzNy0hKSaao+JhtheSR18z+A4dITUnhleef4PpPXmHLWGTAJLQ/7JrBcrU/4o4C1vGid2Y/fQGHw5Hwy1/+8kt2D0RO3y03XsszTz5IKBzm8JFigF4HjZ5EvkxFZRUHDxfxiSsvY+3rL3DNlZd2+fErvvsNZkybwrGS0uPCntPppKqmlsNHivnMTct445WnmDRhbFTGCHDF5ReZ/Q6DPS+Nmb5TTcyJ4vIgwJSJ45kwbgw1dXU9fv8dDmhubmH4sDyWXHJBVMcBsHDebF569nFGjhzB3gOFpg/aKbbVOF0Oh3lUVlVTeLiIK5Ys5p1VL/TL85SY48AELDtnsOIya8Tlk+6GD8jH3GlhFwdQ/p3vfOfK3Nxc7TM4yN10/TW8/vIfmD9vNgcKDlNRVY1lWV3u09dbwWCQ0rJKCg8VMW7sGB7/5U956Zn/x/ix3RemZ6Sn8eSjPyMchtKyChwOB21tbRw4eIjU1BQee/AnPP3rXzB82MkbUZ6qpZdeyLlnL6Bg735aWlrx+wO0tvqPf/jN42hxCV6vh09fd1VUx+BwOrjmqstoKCmjoaGRtrYggbY2AoFOj7Y22tqCNDW1cOzAfq696rJ+q0dacukFrF/9Z35499cYOWIYR0vKOFxUTH1Do6nR6ofA1dbWxrHSCg4WFjFm9Ege+p8f89cXnozqTKHEPLuWCOO6Bstxqo0Jh4ou3s1OAi4Beu4U2X9aU1NTQ8eOHXs0JSVluI3jkChqawvy8BN/4HdP/4mdu/eBBZkZaSQmJrb3YnJ2ObsSDocJhUK0BYM0NDbR2NhMeloqZ86awY3LruRfbrmOtB72luvsL6+9wRfv+CZVFVX4kpNZ9okl3PfDb0XlrsHufLRrH1/59g8pKDgE8LFlyrAVxoGD5OQkvvGVf+cLn70h6mMIBAL857d+yKsrVxMMBs33u9P/tzDf64SEBC447yx+9bMfkZPd/3vxVdfU8vfVa3nrH+vZ+MFWjhw9RmNTM16vh7SUFLxeNy6Xy9Rs9TKVW5ZFKBQiEGijrr6B5pZWsjIzmDN7JsuuWcJnP/3JPm1BJIPT/Pnzv7158+btmP6OA8mFmTg4bFnW2gE+tu0UsDosBqZgX8ByAEd/9KMf3fjd7373/9o0BulHjY1NvPTXVaxes55tO3ZSUlpOY2Mz/kAAsP554Q+HLSws3AkJJCX5yMxIZ8L4sSxaOJeLLzyXi84/65QKmjvbs7eA115/i5nTpwzoligFBw/j9wfMuDv96oXDYVwuF6NHDicpqefeYX1x8NARKiqqwXH877/Vvjl1dlYGkyeO69cxdKeisopNWz5i09YdbN2+i/0HCiktr6SxsYlWfytOpxO3202Cy3VcIDd3GYYJBkMEAgGwICUlmdycLKZOmch5ixZw0flnc85Z82x5XhIb5s+f/7XNmzfvBdIH+NCRmbPDlmWd2u28Q4AClpEAXIdZJrSrwD2QmpoaKikp+VVycvJIm8YgA6S2rp49+wo4dPgoJaXlVNXU0BZoMxt3JSSQlprKsGG5jBoxjEkTxjF2jF4S8aS6ppaCwiMUHiqi6OgxSssqqK6to66+gdaWVoLBoNl2KMFFYmIiGelp5GZnMWb0CCZNGMeMaZMZPUqT4AJA2/z587+xefPmAgb+rvQEoA04YlnWuwN8bNupD5aRB6RiX/2VA6i6/fbbr1G4ig8Z6WksWjiXRQvn2j0UiUFZmRlkZWawcN5su4cig1/Qsqwg9rVKsICe73QZguKy8KwLwzCbUdpxGytA0OVyJS5fvvxKm44vIiJDkz8cDgew53rvwFxX7bq22koBy8jHTGPawQHUXnvttWcOHz58uk1jEBGRoakpEAg0Y8+KlYP2+0hsOLbtFLBM3VUG9gUsgNbbb7/9QhuPLyIiQ1Bzc3NLQ0NDK/bNYAWx9/pqGwUsyAaSMC8COzSPGjVq5OWXX66OfyIiElXFxcWBsrKyAPZ0U3dibhyzc3cU2yhgmYDlxp4mbA6g9uabb16AKbIXERGJmsLCQn9bW1sb9hS5OzGzV34bjm07BSwTsOyavgwBjk9/+tMLbTq+iIgMYS0tLWXYVwPlwFxfNYMVh1yYxmt23ULqHz9+/MiFCxeqC6CIiERdc3NzCWaFxq42DVoijFOp2Ft/Vb9kyZLpQLJNxxcRkSFs27Ztddg3g2VhwpVd11hbKWCZuwjtmMGygNCSJUtm2HBsERGJA1u2bKnH3mt9C/Y18bZVvAesNOybNg26XK7MCy+8UK2aRUSkPzQHAoFSzETCQIv0wGoiTgNWvG+Vk449dw8C+M8555wROTk5Y2w6vojEi2AL+KvBXwX+Ggg2QbgVwkFwOMHpBVcSeNLBlwveLHDrxubBrqampnrv3r3lgNemIYSAZuy7ztoq3gNWMvb94BunTp06Ef0MRCSaWsqgejtUb4Pqj6D+ILQehaYy8DebapgTz3qRuQYX4PVAci4kjoGMyZCzAPIWQa5udh5s9uzZU1JSUtLMwG/yDObV1IpZIoxL8XxxdwKJ2NjCf+nSpaPsOraIDCFVW+HoG3DsDajYAvWVJkiFMeEpAXO5i/w9ErAcXfy9NQDNxdBWDNZ74Py9mf/Imw1Tb4Uzvj6gT01OX2VlZSGmyNyOUhgX0IACVlzyYU4bdhS4h4HEUaNGjbfh2CIyFARqoOA5OPAcFK81CzEOTNtkN+Bp/7hTvbRG+n1HFpUiO8kd2Q77vwGVH8Di5/o6ehkAb731VjnciEcBAAAgAElEQVQmatvVZNRPnN5BCApYdt1BGMrMzPSNHz9+hA3HltPRVgd7noSk0TDxBrtHI/GstRy2/y/seRwqK82lM5H+2wvCgQldKZjgtuuPMOf7kKG96WNceO/evQXY1wbICTTadOyYEM8By4s5Xdhxd0Ng9uzZecOGDcuw4dhyqqwwvH4NbH3HdE2bcA4suAdGXWX3yCTe7PgFbFoBFVXmDJbCwM5NeDAzZdXbFbBiXG1tbfl77713FHvuIATzyqyx6dgxId4Dll0tGvwOhyMXewoP5ZRZULnZzBKkAAXvwZGrYdp1sOD7kKVOG9LP6vfA6luh4ANz5jrZWzOL3t264+DUz4CROi1/XF83B4WCgoK9tbW1tZjt4OxSb+OxbRfPfbAiFQp23EXYNmbMmEwbjiunw+GC8x/uuCcmAzP3uf1FeGEevPc1aDpq7xhl6KrbBy+fDwc+MMuAkcrRyBa6LZiFmPr2R6TrkJ+OTUpOfLS2f1x9++f3tlDCzg1X5JSsWbOmEPMqsOM678LMdTbYcOyYEc8zWB7sO1U4zj77bDWZGUwm3QrXWvC3L5hTRgomaPlDsP4B2P1rOOMOmP1VSMyzd6wytBx7E/ZXmfluP+as7QS8bkjKBl8eeLLBnWl6WCVmgScV3GmQkAQuDzgSAAdYIQi1gL/OtHNoOAQ1O6BilwlbSZg3D9297YycMV12rTpJb7377rt7sK/+KgHzilLAilO2Bqzs7GztPzjYTPw8XD8KXr0G6lpMm1ov7XUp9bD2p7D7MZi1HGb9J7jTbR6wDAnjb4Jl5RCogowpkDwKEkeAbxh4M02Y6quKD2DPo7D9STMz1t2VIdIry5fT92NKvwkEAqWvv/76AUxktkOkwD1u7yCE+A5Ydj13C3AkJiZqBmswGn4p3PQBvHotlB7s2GzJ2/6oq4a3vgcfPQyzl8PMO9QRW/omMQvmf79/j5G70DzSJ8Lbd3f0zDpRGFOL6BvWv+ORPvnHP/6xrbm5uQKw6071BKDapmPHjHiuwbLzuTtcLpcK3Aer9Jlw00aYfinUcXyXGR9mZqu2FFb/Fzw7FTavMLfWi8S62XdBVq6p0+pKEEhMhZTRAzkqOUWrVq36iO5jcn+LHLPKhmPHFAUs+3h6/hCJWe5suHo1LPp3U8rZyvGnsn8GrRIzo/XcdNjwTag/YMtwRXotY1r3Re8hIGmc6gxjm/+1117bSf91RuuJC3MLhQKW3QOwkavnD+k3DhSwhoYL/h9c+SvzE+3qhuRI0GqshnU/g+fPgH/8G5S/P7DjFOmthMSu/z3S0T1rxkCORk7Rjh07tuzevfsw9tVfJWCK2+O6RQPEd8A6nS4w0RTP9W9Dy4wvw/VrIGck1NKx/1tnXkzQCvjhw1/DC4tg5ZVw6OUBH67ISfnruv53B+a1nT1/IEcjp+jZZ599HxOH7bq+e9DsFRDfAcu2TZ7btdl8fImmYYvhps1wxhXmfVt326u6MYXxLmD33+HlT8HzM2Hbz8wGuyLR4q+Cj34Jf7sa/nop7Pifnj8n5IfmY11fGUKYAvf8c6M8UImilhdffHELZnnQjh6PEXFf4A7xPYsSxr4XoEX3ZaQyWHnz4Mq/wbAVsO57Hf2yuuLCBK0wcGwXHPkmbP4ejFsGkz8Po5YO2LBliCl/F/b9AQ78ESprTFiygO1vmY7w5z3W/ec2HYGWkq4LKNqA7BzIXdA/45Y+27Rp04d79+4tAvJtGoIL07q2zKbjx5R4Dlh2bPLcmWawhqq53zXv8td8EY4dNu8lE+g6zjsxrQAtoKkFNj0LO5+F4XNhwqdh0qchdcJAjl4Go+ZSKHwRCp6G4ndNibGXjjYiYG7E2PY4zP6v7l9TNbugMWRmqk4UAIZdDE5vPzwBiYbHHntsLR3lL3ZMILiBSjSDBcR3wLJr9soBWKFQKO4LAIe0EZfCp7fCO3fCtqeOD1Jd6dxLKwQUbYHDW2DzD2HMlTD+ehjzCfCoeam0s0JQvBoK/giFf4Ga9mtaIqber7N/dmAHnCe5v6byA/P6O3F5O7JFzuir+z5u6RfNzc3HXnjhhc2YPSbsur55APWkaRfPASuEjUuEra2tClhDnTsDLvkDjL4M1n0NKqtPPpsV4aJjg4vWVtjxEux6CXKGw+hPwITrYOTlZo9EiT9l75mbI468BKX7zcySF/Oa6aruz4H5mEbgkq+aTvDdKV3X9ddoAzISTMiXmPT888+vrampqQRGYc+1zYG5rpbacOyYFM8By4+NAau6urrJpmPLQJv8eRh5CbzzZdj5qvmt6+1Wbp72hwVUl0DZ47D1ccgfD6OugjHXwKhL2/eakyGrchMceQUOvQqlW0yVixsTrLrpqgCYS14T5rJ30Zfh7JMUureUQ8UG83U/9v+AaVeBN/u0n4L0q9AjjzzyD0zVp13XNRcmxqv+ql08n5XtLDK33n///abbb7/dxiHIgEoaDUtfgfG/hfVfM8XHvZnNinBgLqSJmML4skI4+hBsegjyxsHoJTDyKhixWMuIQ4EVhrINcHQlHFkJ5VtMUHLRUVt1MpG5hAYgKwMWPwoTbjr555SsgTr/x8N/uP24k794Os9EBsCGDRve2bhx427s2xoHzNnpGKbaT1DAAnuKAd2HDh1Sn5B4NOULJgy9fzds/62ZGehuaac7TsxF0Ie5iJYfguLHwP0YZObCyAthxBUmbKVNivITkH7TUgHl70HxG3D0Dajca3YJSKB3oSrCgfm8EDD7Ojj/f03A70nRa8dv+xTRCgwfAaOv6e0zkQF27733voaZe7SruJ32Y6vXTCfxHLDsXCL0Yu60qKf3p00ZKnwjYPFvYPx1ZvucI3s7ZqdOlYuOsBUGaiug/M+w/c+QmgB5Z5keXSMvhpyFmt2KNZWboexdOPYGlL5nfn4Bjg9VvQ3fDkytVBOQnQWL7oXpt/Xuc0N+KP5b1/tLtAHT7wCHnX2ZpTuHDh3a8de//nUzkIN917QEzPJgkU3Hj0nxHrDasCfxe3fu3FlTXl5el5eXp4AVr8ZeA2OWwpafwaYfQ22LqaBwc3qvSCcdQc0C/EE48C7sfxe890HGCMidD8MXQ+5Z5u+u3haDSVTU7YWKjXBsLVS8C5W7zGyTRUe9nZfT22OiHvMaOPMmOO9/IOkUVotK1kBV5ccDViuQnQjT7jiNAclA+OlPf/oy5u1VbwsO+oMXKMTEe2kXzwGrBXP6iLz3H0jOysrKxoKCguK8vDxtSx/PHB6YdxdMuhE23gO7nzcX3BTM7NTpni4dmKAWKVgOA9XHoOIYfPRq+x6JwyF7AeQvMs0jc+ariDmarBDU7DQF6uXvm+W/6p2mz1SkrslD981oe6sV83Zx9ExY9CMYe92pf43CP5qZsxNnUVuBRXeCN7OPg5T+UFZWtu/xxx9fC+Rib+NsJ5q9+hgFLHN6G+imnw6gtbi4+BCwaICPLbEobTJc9keYeRt8eC8ceNP8+6nWZ3UnMrsVEQKqSqDsVdjRHrhSUiHrDMieA9lzzZ5zaZPAo0nWXmk8AjU7oGorVGyC6k1Qd8S8pw9jwm4CZgvevv5MI8uBjUBWIpz/XZh71+l9rbDftH3oavYqJwlm392noUr/ueuuu54Jh8MhzE/Pru3f3JhX4lGbjh+z4jlghTEhy45mQg6AVatWFd1www02HF5i1vCL4ZqLTfPIzfdC0Y6OOqtolsC4OP6VHwIaGqD2Pdj7njlleoC0HEifARkzIGs6ZJwBqRMhZVT89uEK1ELjUajfC9U7zCxV7S6z/NccMrNJYL5/kZ5m0fzZBTGhLRk4+0sw7zuQMv70v97hV6Cy1gS/CAvzPC75MXhVtxeLioqKPnryySfXYWav7ApXFubstB8z9y6dxHPAAhOw7JKyc+fOA5j3oV11npF4NvEmmHgj7HoYtj8Axw72T9CKODFwhdsftZVQvhZCazsCQ5IX0sZD0ljImAzpkyF5HKSMg+RhkJjXDwMcYFYQmkug6Rg0HILGA1DX/mgsgPoSs6QWxIRTD+ZsmtD+9/74GQUxlzAfcObNJlhlz+771z3wu44ly0jH9gZg3CSY+dW+f33pF9/+9refbf+rG/sCVmRb8IM2HT+mOSzLzg237eMwd8TMwizRNdowhDaXyxUsLS39n5ycnD68/ZQhL9QCux6Dj34Fxw60hxz65yJ+MpFTeAhzsQ9iTq+Rnc98QHIOePLMDFfySNM1PHEYJI0EXw4kZoM3C9zp4LJpT7uQ38xC+augtdo02GwuhtZjZmaq4Si0HIPWEmhs6GjoEtlCJrLU5+j06E9tmGCVCEz+BMz5FuRfEJ2v3VIGT48Ef6gjGAbaj3nLe5CnCoZYtHnz5vXz58+/BxjGwJ8JOksE6oBIoX234jFrxPsMVi023tYaCoUq1q1b99GyZcsUsKR7Lh/M+oqpz9r1a9j5EBTvMqfVJDreQ/Y3Z6c/I3OunX97gkB1JYQqIbyr47Qfub/JA3hd7eEqBTwZ4Ms2S1CeNHCnQUIqOH2QkAzuZEhINHvnOb3gdJlWAY5IqrPAssxsUzhoglOwxTzaGiHUBKFGaKsHf50JVS3twSrYAME68IfNUliY4y9TjvYxR2YNO//7QAlg5th9wKyrYdZXzR6X0VTwFNSFOprFhGnfUufrClexK3Tbbbf9DhNunNh3DQNz9+Bh7JtBi2nxHrAaMKewBMzlYSA5AeeqVat2LFu2TB38pGdOL5xxh3nsfxp2PgxH3jWvXB/2/DZ3DhyRJbIIq9PHWLRXPYagqRqsarCOmH+3On18mI5lKgfHh7ruZosin2N1+hqc8Hmdxxr5NycdTVs7N2uxcz4gUvvkx2zYPOMzMOPLkH9u/xxv/xMmREaecw0wZT4s+Fn/HE/67Pnnn//zBx98sBsYg73hyoW5FeKAjWOIafG+ROgEPok5lflP+gn9o3n8+PFpBw8efJTjS0xFeufoKtj1KBx8yRQ+96WPkp0ioerEf+v854l/jzgxQHX1dWL9+xHCvNWzgNwcmPJ5mPpvkDGt/45Ztg6ev6Cjtq4eyMqBm3dBYm7/HVdOW2tra/mIESO+VFNT48Dc5mBna4Y0TO+rN3r1CXGYNeJ9BitM+2nFpuP7CgsLj27cuHHzWWeddb5NY5DBbNQS86jaDvt+CwXPQWWJeWXbNat1OroKQN0Fpmh87VhgYZYBI934Jp4Dk/4FJt0CngHoO7X7EXN8H2ZZMMUDn3xd4SqG3XnnnQ/V1NTUAqOxd1kuMre818YxxLyBqt6IZZXYdxefE7Cef/759206vgwV2bPhnP+BG3fC0sdgygUmWNRhCqRVIREbLEwBeQPm55KaA4tug+vXwrXvwow7BiZcNRbBwRdNuKoHktwmXGXO6/9jy2nZsGHD20888cRbwHDs/432AWXAEZvHEdPifYkQzDuBJXRM0A+0lnHjxiUVFhY+hpnyFYmOyg/h4AtQ8CJUHjCL4F7MkpDeWg0cC1Mn58csBWYAIy6HCZ+GccsgMWfgx7TrEfjTHea1kJcF17wKuf1U5yXR0DhhwoQvFhYWNmFKWuy+cKcBa4Hdvf2EeMwag2UBoT9VYt5Luhn4ju4AvkOHDh1ds2bNOxdffPEVNhxfhqqcBeax8F448joc+hMUrYTK8o7eTQpb/aeNjjsUU4AJ58KE68welGlT7B3b8Ath1nmQlAvnP2D6mEnMWr58+S8KCwvLgFHYP3vlBaoxzUXlJDSDZVyFmXa1oxOtA6hctmzZ3JdeeumnNhxf4kmwEYr+Dof+Csf+DlVlZnbFhTltxmlz9qiI3AEYeZuW5ob8c2Ds1TDqKrMNkcgpWr169d8vv/zyezHhyu6KQgszB7sB2HpKnxiHWUMBy5gPLMRUrNghBNSXlpY+kJ+f34+3DYl0EmyCkrehaBUcWwUVe0zBNXRsFD0QjTQHo8hpM4gpFI/sNZg5zISq0Utg+GWQPsm2IcrgV19ff3TMmDG31dXVuTDzoHZfsN2YV/1LnOJOKPGYNbREaJRg3nc6sWf6NQFofeCBB1776U9/qoAlAyMhGUZfbR4AFRuhZB2UroGyjVBX3tHFPLIVTOfeVPEk0l8rjJmlsjDfjxQvjJkHuRfAyIshdxF4M+wcqQwd1s033/zTurq6FmKjsN3C1AlvxN5t5gYNzWAZCcCnML2oAl1+Qv/zZ2ZmhktKSh7xer3DbBqDiNFaCVWboXQdlG+E6s1QV9FRqB3ZLsbJ8Y0qh4LOYSqEec5OTMhMTYasuZAzH4ZdANlzIW2CjYOVoeqHP/zhL37wgx/8CfsbikZ4MBMRL9Ix191r8Zg1FLA6LAamYG6gtoMDOPqTn/zk5v/6r/+63aYxiHTNXwu1O80sV+UWqNkOtXuhubWjkNtNR3d0Fx0d02Ot0Wfn8YQ4PkxF9nNIBLxOyJgEmXNMG4zcsyBzFiTp/Y/0r1WrVq1cunTpfcBIzFuZWLhQR2qvtpzOJ8dj1lDA6jAFuBjTFcYurampqaGysrJHfT7fcBvHIdKz5lITump2Qc1uaNgNtQXm3wNtHY1PIoXznbeocXH8cuOJp6FTDWSdP9/R6d/CJzw6b6dj0R6kHODLh/QJkD4d0qdB1gzImAnJY2MrHMqQV1RUtHvixIn/2dbWloJZVYmFi7QX81bqz5zmKk88Zg0FrA4+YBn27EsY4QCO3nPPPZ9asWLFcpvGIHL6wkFoOgKNhVB/GBoPQfMRaCw2j0CV2WS51W8WG4Icv/dgV9vidBdwugpVka8RqZFyAx4nuDNMA8+UUZA8ApLHQMo4SB0DqRNMm4KExGh8B0ROWyAQKJk9e/Z/7t27txHIxv66q4gMYB2w43S/QDxmDQWs410MTMa+ZUKAgNPpbCgtLX0oNzdXtyDJ0BKoAX8VtFaZZcfWCvDXQLAeAnXQ1gjBZgi2QKgVQn4T2qwgRM5VDhc4nODymkdCIiQkgTsZPOngToeEDEjKA28WeDNNM09vjvk8kdjUdNllly1/8803DwIjMIvWdrMws2j1mDsHT3tM8Zg1FLCONwm4BHsDlgMouemmm85+7rnnfmLjOEREZIB89rOf/c4zzzzzHrHRTDTCAaQCqzAbO5+2eMwaejt3vKOYpG7X3oRg3jHk//GPf3x3w4YNb9s4DhERGQDf+ta37nvmmWfWY2auYiVcRdoyHKaP4SpeKWAdrxUowtRj2Rm3nUDaZz/72Ucw+9yLiMgQtGLFip/ff//9f8XcMRhLt1QkYMLeh3YPZLBSwPq4A5jSWzu/NxaQfvDgwdK77777ERvHISIi/eTnP//5r773ve/9GdPrykls3DEIZhwpmM2cK20ey6ClGqyufQLIw/5utSGgbP369T8499xzF9s8FhERiZJf/OIXDy1fvvxZYqvXFZhx+DArOqfdluFjXzQOs4ZmsLp2ENO11m4JQOqNN974YCgUKrd7MCIi0nf33XffAzEarqBj6/f3sG9nkyFBAatrBZhid7tDlgWkHzt2rPaGG27QHYUiIoPcXXfd9ZO77777z5i7BWMtXFmYuwYPAIfsHcrgp4DVNT+wn9joohsGhr/88ssb77///l/ZPBYRETk9rbfddts9P/nJT1YCozEzRXZfXzqL7G3QjJm9kj5SDVb3UoDrMQHHrs7uEY72MRz7y1/+8s1rr732WpvHIyIivRQKhcquvfba769cuXIXZubqxH0LYoEDSAfWAHui/cXjMWtoBqt7jZharGTs/0WwML25cj75yU8+sH79+rU2j0dERHqhqKho96JFi766cuXKvZi7BcH+a8qJIkuD++mHcBWvFLBO7iPMcmGC3QPBzKQlA6mXXnrpvbt3795m94BERKR7b7zxxuvz58//1ocffliFKWiPlSainUXuGmwA1ts8liFFAevkajDFfrEwiwXmlzPN7/e7rrjiinuqqqr22z0gERH5uP/93/99ZMmSJfdVVFQ4gFxiM1yBqQXzYDZztrs10ZCigNWzHZhZLDu3z+ksDGQdOXIkcNFFF91VX19/xO4BiYiI4ff7Sz/3uc9986tf/erTQD5m6S1Ww5WFqbvaBuhaEmUKWD2rBfYRO7NYYH5Zc3fu3Fl/1llnLS8qKtpt94BEROLdO++889acOXPufOqppzYBYzFvzGPlunEiC0gDjgEbbR7LkKSA1TvbMEXvdvfF6iwM5O7du7dp4cKFX9+yZYt+QURE7NGyYsWKn1144YU/2rNnTzNm02aL2A5XPszqzFvE7gzboKY2Db03CzgfU5cVSxtyuoBqn8/X9pe//OVbl19++WV2D0hEJF5s27Zt/Ze//OUn169fvx8YRmzPWkHHXelJwN8YoKXBeMwamsHqvZ1ABbG1VAhmv8LMlpYW35IlS37y3HPPPWf3gEREhjrLsqq/973vPbBgwYIfrF+/vhjTPDTWwxWYCYIU4ANUd9WvFLB6L4x5QbqJve9bGFNImXHLLbc8dPfdd/832kNKRKRfvP322ysXLFjwlRUrVrwcDAYzgRxie0kwIlLUfgDYbPNYhjwtEZ66S4FJQB2xtVQIZjwhoPiKK66Y+eSTT359+PDhk+0elIjIULB79+7NP/jBD555/vnnP8AUiKczeOqXIs1Eq4FXgLYBPXgcZg0FrFOXDFyHmcWK1VkiJ1Cam5vrfeSRR/71+uuvv8HuAYmIDFYNDQ0H//u///uF++67703LskJAHuY8O1guoBbm2uUHXsbctDWwA4jDrKGAdXqmARdjWjjEKifml6jmi1/84nn333//FzMzMyfaPSgRkcGirq7uyMMPP/zyL3/5y7dKSkpqMcHKw+CZtYKOTZydwKuYWuKBH0QcZg0FrNN3BWZfqXpib6kwwoE5EZQNHz487b777vv0F77whesBr83jEhGJWVVVVYd+/etf/+3BBx9cXVxcXAlkY9oaDLYLpoUJhD7gdeCQbQOJw6yhgHX6UoBPYdoktBK7IQvMO5cmoOqKK66YsWLFipsXLFiw2OYxiYjElAMHDux44okn/v6b3/zm3fLy8hogi8EZrMCMOQFTd7UWcye8fYOJw6yhgNU344GlmFmsWP9GRp5wNRC49dZbz/7617/+qdmzZy+0c1AiIjZrXrNmzYbf//73bz311FObgsFgK2bGKpHBtRTYWedw9R6w1d7hKGDFlSgFLIALgZnEXgPS7kTuNKwAHLfeeuui5cuXXzV37txzbR6XiMiAKSsr2/XMM8+sf/rpp9/btGnTQUwLnixMMBnMF0YLs7KShtkCZ5O9wzHiMWsoYPWdC1iG+cVsYHCELDDjDAKVgOPaa6+dfccdd1y2dOnS8zC3HouIDCklJSUH33zzzfdfeeWVTa+++ure1tbWekwQSWFw3RXYnc7haguwwd7hdIjHrKGAFR0ZmJAFsV+PdaLIjFYNEJw7d+6oW2655Zxly5adP3ny5JkMruciItJZ6549ewq2bt269YUXXvho9erVe+rr62swN/qkY2arhopIuErH7J+73t7hHC8es4YCVvRE6rGaMA3cBlswcWB+QRuBBo/Hk3zhhRdOuvnmm+cuXrx4zsSJE6cTW5tdi4icyGpqatq/evXq4m3btm1ZtWrVgQ0bNhwJhUItmDCVhlkKHGo611xtA961dzgfF49ZQwEruuYDZ2P6Yw3mb2xkVqse8Hs8Hu/MmTPH3nDDDZOnT58+a+nSpWOTkpImYt4tiYjYIRwIBMqPHj166K233qo4evTorldeeeVoaWnp0ZKSknrMkp+XjuW/oapzuNqEqbuKOfGYNRSwom8xphFpLYNvFqsrkbDVBLQAwaysrMyxY8cOu/zyy4f5fL6Jl1xySc60adOGAcPz8vJSMHffKHyJSF/4gbby8vI2y7JKampqyjdu3Fh38ODB2tbW1sP/+Mc/ygoKCmqqq6urQqGQHzPDHun5NBRnqbpiYZ5rCqbeaou9w+lePGYNBax++NLA1cBIYnO/wmgIYE5+AUzocrvd7iQgecaMGclTp05NSUpKSvJ6vWlOpzMJcwJwo9AlIsezgDbLsgJA0LKstlAo1NLc3NxQU1PTUlhY2FJQUBCwLKspGAw2Y847YN7EeYjvc4uFmaFLxCwJ7rB3OCcXj1lDAat/eIFPYorfY7nTe7RYmFmuYPufoRP+28L0k4nPF5uInIyz/eFof7gwS17O9r9H/nR1+ph4ZwFJ7X9fCxywcSy9Eo9ZQwGr/6QB12CmqxvRSUFERPrOwtRbtQJvAcX2Dqd34jFrKGD1r0zgE5ip7CYUskREpG/SgSpgNaa9zqAQj1lDAav/5WBqshIwM1lD+W4WERGJvs4NRA9jZq5abR3RKYrHrKGANTDygCswxZiayRIRkd6KFLP7MHsKxkx39lMRj1lDAWvgZGNClmqyRESkNyxMC4YgZtPmvfYO5/TFY9ZQwBpYmZiQlcbQbeEgIiJ9Y2HKSdIw+8WuBcptHVEfxWPWUMAaeGnAEkxtVp1dgxARkZhkYXpbJQL7gHWYnoODWjxmDQUse3iAS4FxmJAVRrNZIiLS0YJhI7DH5rFETTxmDQUse10InIFpRhpEIUtEJB513vKmCDNrVWvriKIsHrOGApb95gALMQGrBYUsEZF4Eylk3wF8aPNY+kU8Zg0FrNgwDjgfs/VBg71DERGRAdC5/UIR8AGDvJD9ZOIxayhgxY504CLMJtENaMlQRGQoitwhmIpZtdhCjG/UHA3xmDUUsGLPOcAsTMBqRiFLRGQoScLs7FGImbUaNNvd9EU8Zg0FrNg0BjgPyEB3GYqIDHadlwPLMB3ZC20d0QCLx6yhgBW7fJjZrElAGyqAFxEZbCJ3ByZjSj8+wiwHhu0clB3iMWsoYMW+ScA8IAuzxY5qs0REYpuFWQZMAvzAfmA75hwel+IxayhgDQ6JwAJgKqY4sgktG4qIxJpIsErGNAstBHYCVXYOKhbEY9ZQwBpcRi6TLxMAAATBSURBVAJzgVGYrRNUBC8iEhsiM1ZtdASrIdt24VTFY9ZQwBqcpgKzMfsZNmOmoAf1ExIRGYQszNZnPkyd7BHM9jaldg4qFsVj1lDAGrw8wExM2MrA/HIraImIDIxEzHm4HjiIqbOqtnVEMSwes4YC1uCXBEzHBK00zLq/39YRiYgMTQmY2aowpq6qEBOsmuwc1GAQj1lDAWvoSMGErAlAJhDCzGrF5w9YRCQ6HJjZKjfmLsBi4DBme5ugjeMaVOIxayhgDT1eYCIwGcjDnBxa0IlARKS3HJjlPy/m3FmFCVUFmCVBOUXxmDUUsIYuB2YT6XGYuw9TMHce+jGzW0P+GyAicgqcmFmqSKiqBo5hZqyOEYfNQaMpHrOGAlZ8SMMErbGYOw89mLAVQCcNEYlfCZjzYQKmvUIN5g7Ao5hQFbJvaENLPGYNBaz4MwzTR2s4Jmy5MSHLj5YRRWRoc2EClav9v5swy3+lQEX7n3rT2Q/iMWsoYMW3fEzQysOErSTMNHkIM7sVQkXyIjL4ONofkUDlwASnVqC2/REJVaqpGgDxmDUUsCQiDcjFhK0MzJ2IkTtnLMz0eRBzkrJQ8BIR+znpOkwFMeesFqAOs/RXQUe4kgEWj1lDAUu6k4rZYDq7/e/pmP21vJiTmBMTtkJ0zHR19YiIzxeaiPSGo4u/Ozo9TgxSLjre+EXe/DVhZqPqMaGqFrPTRUv/D196Eo9ZQwFLesuJabCXjpntSsQsKSa3P9x0nPgS2v+MnBjp9KeISGddvTGLvHkLdvqzjY49WCPBqRETrFowy3+qn4pR8Zg1FLCkL9yY0OXDzGpF+sZ42/+fk46gFflTRKSzSJgKn/CItJWJ3PEcma1qbX/IIBKPWSNuA5aIiIhIf9GyjYiIiEiUKWCJiIiIRJkCloiIiEiUKWCJiIiIRJkCloiIiEiUKWCJiIiIRJkCloiIiEiUKWCJiIiIRJkCloiIiEiUKWCJiIiIRJkCloiIiEiUKWCJiIiIRJkCloiIiEiUKWCJiIiIRJkCloiIiEiUKWCJiIiIRJkCloiIiEiUKWCJiIiIRJkCloiIiEiUKWCJiIiIRJkCloiIiEiUKWCJiIiIRJkCloiIiEiUKWCJiIiIRJkCloiIiEiUKWCJiIiIRJkCloiIiEiUKWCJiIiIRJkCloiIiEiUKWCJiIiIRJkCloiIiEiUKWCJiIiIRJkCloiIiEiUKWCJiIiIRJkCloiIiEiUKWCJiIiIRJkCloiIiEiUKWCJiIiIRJkCloiIiEiUKWCJiIiIRJkCloiIiEiUKWCJiIiIRJkCloiIiEiUKWCJiIiIRJkCloiIiEiUKWCJiIiIRJkCloiIiEiUKWCJiIiIRJkCloiIiEiUKWCJiIiIRJkCloiIiEiUKWCJiIiIRJkCloiIiEiUKWCJiIiIRJkCloiIiEiUKWCJiIiIRJkCloiIiEiUKWCJiIiIRJkCloiIiEiUKWCJiIiIRJkCloiIiEiUKWCJiIiIRJkCloiIiEiUKWCJiIiIRJkCloiIiEiUKWCJiIiIRJkCloiIiEiUKWCJiIiIRJkCloiIiEiUKWCJiIiIRJkCloiIiEiUKWCJiIiIRJkCloiIiEiU/f+n4fxkY4VwGQAAAABJRU5ErkJggg==;container=0;" vertex="1" parent="4H_WjhlQltqY6Wh8Jc6u-2">
          <mxGeometry x="204.7644078947369" y="267.68000000000006" width="133.15789473684217" height="108.94736842105267" as="geometry" />
        </mxCell>
        <mxCell id="4H_WjhlQltqY6Wh8Jc6u-9" value="User" style="rounded=0;whiteSpace=wrap;html=1;strokeColor=none;fontFamily=HD현대체 Bold;fontSize=22;fillStyle=zigzag-line;fillColor=none;container=0;sketch=1;curveFitting=1;jiggle=2;" vertex="1" parent="4H_WjhlQltqY6Wh8Jc6u-2">
          <mxGeometry x="59.5" y="365.06999999999994" width="69.97" height="42.61" as="geometry" />
        </mxCell>
        <mxCell id="4H_WjhlQltqY6Wh8Jc6u-10" value="" style="endArrow=classic;startArrow=classic;html=1;rounded=0;strokeWidth=2;fillColor=#647687;strokeColor=#314354;" edge="1" parent="4H_WjhlQltqY6Wh8Jc6u-2" source="4H_WjhlQltqY6Wh8Jc6u-8">
          <mxGeometry width="50" height="50" relative="1" as="geometry">
            <mxPoint x="337.9199999999996" y="329.28" as="sourcePoint" />
            <mxPoint x="412.93000000000006" y="321.68000000000006" as="targetPoint" />
          </mxGeometry>
        </mxCell>
        <mxCell id="4H_WjhlQltqY6Wh8Jc6u-11" value="" style="endArrow=classic;startArrow=classic;html=1;rounded=0;strokeWidth=2;fillColor=#647687;strokeColor=#314354;" edge="1" parent="4H_WjhlQltqY6Wh8Jc6u-2">
          <mxGeometry width="50" height="50" relative="1" as="geometry">
            <mxPoint x="129.47000000000003" y="321.56999999999994" as="sourcePoint" />
            <mxPoint x="204.47000000000003" y="321.56999999999994" as="targetPoint" />
          </mxGeometry>
        </mxCell>
        <mxCell id="4H_WjhlQltqY6Wh8Jc6u-12" value="&lt;font&gt;Data Base&lt;/font&gt;" style="rounded=0;whiteSpace=wrap;html=1;strokeColor=none;fontFamily=HD현대체 Bold;fontSize=22;container=0;fillColor=none;fillStyle=zigzag-line;sketch=1;curveFitting=1;jiggle=2;" vertex="1" parent="4H_WjhlQltqY6Wh8Jc6u-2">
          <mxGeometry x="209.06624999999985" y="357.22187161542945" width="128.85681250000002" height="58.306256769141065" as="geometry" />
        </mxCell>
        <mxCell id="4H_WjhlQltqY6Wh8Jc6u-13" value="" style="sketch=0;pointerEvents=1;shadow=0;dashed=0;html=1;strokeColor=none;fillColor=#505050;labelPosition=center;verticalLabelPosition=bottom;verticalAlign=top;outlineConnect=0;align=center;shape=mxgraph.office.concepts.web_page;container=0;" vertex="1" parent="4H_WjhlQltqY6Wh8Jc6u-2">
          <mxGeometry x="59.50125000000003" y="292.4350748318391" width="72.63157894736844" height="74.26522449551739" as="geometry" />
        </mxCell>
        <mxCell id="4H_WjhlQltqY6Wh8Jc6u-14" value="Admin" style="rounded=0;whiteSpace=wrap;html=1;strokeColor=none;fontFamily=HD현대체 Bold;fontSize=22;direction=south;fillStyle=zigzag-line;container=0;fillColor=none;sketch=1;curveFitting=1;jiggle=2;" vertex="1" parent="4H_WjhlQltqY6Wh8Jc6u-2">
          <mxGeometry x="421" y="365.06999999999994" width="88.5" height="42.61" as="geometry" />
        </mxCell>
        <mxCell id="4H_WjhlQltqY6Wh8Jc6u-15" value="&lt;font style=&quot;color: rgb(0, 0, 153);&quot; face=&quot;HD현대체 Medium&quot;&gt;Micro Web Framework&lt;/font&gt;" style="rounded=0;whiteSpace=wrap;html=1;strokeColor=none;fontFamily=HD현대체 Bold;fontSize=22;fillStyle=zigzag-line;fillColor=none;container=0;sketch=1;curveFitting=1;jiggle=2;" vertex="1" parent="4H_WjhlQltqY6Wh8Jc6u-2">
          <mxGeometry x="87.06999999999994" y="81.68000000000006" width="144.86" height="65" as="geometry" />
        </mxCell>
        <mxCell id="4H_WjhlQltqY6Wh8Jc6u-16" value="&lt;font face=&quot;HD현대체 Medium&quot; color=&quot;#000099&quot;&gt;Least Privilege&lt;/font&gt;" style="rounded=0;whiteSpace=wrap;html=1;strokeColor=none;fontFamily=HD현대체 Bold;fontSize=22;fillStyle=zigzag-line;fillColor=none;container=0;sketch=1;curveFitting=1;jiggle=2;" vertex="1" parent="4H_WjhlQltqY6Wh8Jc6u-2">
          <mxGeometry y="221.18000000000006" width="120" height="55.5" as="geometry" />
        </mxCell>
        <mxCell id="4H_WjhlQltqY6Wh8Jc6u-17" style="edgeStyle=orthogonalEdgeStyle;rounded=1;orthogonalLoop=1;jettySize=auto;html=1;strokeWidth=2;curved=0;entryX=0.5;entryY=1;entryDx=0;entryDy=0;fillColor=#647687;strokeColor=#314354;dashed=1;" edge="1" parent="4H_WjhlQltqY6Wh8Jc6u-2" source="4H_WjhlQltqY6Wh8Jc6u-20" target="4H_WjhlQltqY6Wh8Jc6u-9">
          <mxGeometry relative="1" as="geometry">
            <mxPoint x="94.48500000000013" y="416.68000000000006" as="targetPoint" />
            <Array as="points">
              <mxPoint x="94.5" y="526.6800000000001" />
            </Array>
          </mxGeometry>
        </mxCell>
        <mxCell id="4H_WjhlQltqY6Wh8Jc6u-18" style="edgeStyle=orthogonalEdgeStyle;rounded=1;orthogonalLoop=1;jettySize=auto;html=1;strokeWidth=2;curved=0;fillColor=#647687;strokeColor=#314354;dashed=1;exitX=1;exitY=0.5;exitDx=0;exitDy=0;" edge="1" parent="4H_WjhlQltqY6Wh8Jc6u-2" source="4H_WjhlQltqY6Wh8Jc6u-14">
          <mxGeometry relative="1" as="geometry">
            <mxPoint x="465.2647058823527" y="416.68000000000006" as="sourcePoint" />
            <mxPoint x="362.93000000000006" y="525.6800000000001" as="targetPoint" />
            <Array as="points">
              <mxPoint x="465.5" y="525.6800000000001" />
            </Array>
          </mxGeometry>
        </mxCell>
        <mxCell id="4H_WjhlQltqY6Wh8Jc6u-19" value="" style="shape=image;verticalLabelPosition=bottom;verticalAlign=top;imageAspect=0;image=https://encrypted-tbn0.gstatic.com/images?q=tbn:ANd9GcTr0JK7xRMxDrc1DPmLhL98yBjUOx8l1ILpFQ&amp;s;container=0;" vertex="1" parent="4H_WjhlQltqY6Wh8Jc6u-2">
          <mxGeometry x="275.30999999999995" y="486.68000000000006" width="81.03" height="62" as="geometry" />
        </mxCell>
        <mxCell id="4H_WjhlQltqY6Wh8Jc6u-20" value="" style="shape=image;verticalLabelPosition=bottom;verticalAlign=top;imageAspect=0;image=data:image/png,iVBORw0KGgoAAAANSUhEUgAAARMAAAC3CAMAAAAGjUrGAAAAgVBMVEUAAAD///8MDAwFBQX29vYJCQmZmZk/Pz/p6ekTExNra2sEBASDg4Pt7e37+/vQ0NCxsbFvb2+5ubnJycnd3d2jo6NWVlafn59ISEjExMR4eHgjIyPs7OwYGBiMjIzj4+MyMjKqqqpdXV2UlJTW1tYeHh5NTU0wMDBCQkJbW1t+fn4nlSVfAAAFlUlEQVR4nO2a63biOgyFnYshEAiEa4AChellOu//gEeSHYxDKGvgNMCa/f1oU0eW4x1blp0qBQAAAAAAAAAAAAAAAAAAAAAAAAAAAAAAAAAAAAAAAAAAAAAAAAAAAAAAAAAAAP55Iu2utU61jqgoirS2d6uXZMF2XHLlZaU1KtSnpWda+xEJAAAAgIcmYtLLdv8M4Zp+6DBEXiBEKpxugyCYbEia6N5P8xCkahlY4kJBE2ETOGZNNPj4MevjSJIgbqTJMGykmet5O9YkaP1wa90sjlvqwTV59SQJksrtdnzEZNR7p5d8S4+6Deh+M11fk6Dj325XbmctWrFvbO7hNZlWOl34IbCqSRCMbxr5T6HJttLlV7/LrEk8Ngxisdjd0tzja5KqWXUYVKYGa/Jy+GufGNmu5/E1UWpSkWRRWShZkz7HVUar9+zGgfIEmsyrw6T4ThO6xeHn7YYGL2ui75xK96qSzHl7fGxR1YT3AYf1Op8PR9OeHGrzn5+zj9mnUkVrtJgu+QzaeqKg3SXLOZVVNCkdWNsVOWgrtdwtpvuf77wj4gfgDTA96a4qyfDEvF4T6WwrtrVG2hTwJiF/LWfj1L3xVlZaeprMjxzI5jPnaq9Sum1CiwOT3F5s4qB8VsO25uXUzx1NuV7fVaS9I/eJR90vV1pOsU7iypL8oEnFAWvCgs1N8aIJKQ5Qg4PRbuFS+mzYYjafddaVGLvKzARTK3mb8XZiurBSkZuJ8cvxot0xFsmbDKCs1MR3kK24rGsNkiTeqeaOcrSqzpdJ5zv7dnCc73elIxyEuYOxjLhZX8ZEWmoy/k2FXy9GKWLMV8N3uopapkXRxDkQWxlUJqce8vHWKrqjJuYNncXkbAPhzbz+DWV1f7h4ZQ7mQhaFDxl6dnBwwFyzLUdP2XbnKtUcwdpZqUnpgIqVZgc8b0WTuQS8qMEjvxNNxt8fI53m9jterfktd+2Ukq6MaKD0ZEyl1H0q3EihUiNbxZmKJp6D3Nry3T4LbWdqQ5xocrrUeFQ1ecmpI9E68FaGFzO/JMYqec1a/Ra9lYplKB66uTWarL0pqfrGnRGXzITG8pRrNMmSPiGBc6vkrGDPIz85wDNCGU3KRU0mz0BJSJ9U1i3S5OvEQaaMJlPvW38jXKOJ3e+wEMFSHaaAj507B006RpOVDBenyR+jSV7joNREP4Mmdi2WFSRWkdUk9jmjSSfgX06TntHk1EFfPZkmmj+HyTunZ6aeFUFdVlWniZLA4TQZGk0KykPGfu0wtZqkTZ9hX6eJDXeyY/xkUTIeMfroGJLDaq0mvMAUpSgRh1xZdzI75Gwxh6nIatI4t2iipUc8E2SFnR6OZgcTPqat14ST/bdyfTWneqzJwkwTK4k4eEpNzA6QsiszeSTHZ7h/lGvUaxKx5cjunc1uiDWpcfCUmijz4YNDrsSFIOnN2jOzPS7OaWJ0mHTpaj8ISk2sg604kOT2Q6mn1CQ1r/cX78/GnpclH1nWaqJlFFD+kUnXbc5W40A9qSYmkAQy+YfOR7xXZzWh3h9ZLvZWkxMHaXrPueOlBdmFw9V2FseJ0yR95zoj6VMxNscv/WlIBrzuZLHT5L0fZ7zacrYxGxjL7ZK6HWcts8tTxaB0oM0axjfvosm643HhY01E5usyiUrpuTXVWWmz4Kxny01ekJGspjrshB2Xb63Djj2FoJur/TL/+mQb8hemWpxZBx/u4dYXn+cn+NskMXT/SiyamP2Z/320zDD4R1SzdaNqaWkYUvJnFE1ttfuj//Jrr7drT0OHM0mtxdkt/nE1V9uWisZXd+d/IY3+7t34/+QWOXyb1N2sycyjE847AwAAAAAAAAAAAAAAAAAAAAAAAAAAAAAAAAAAAAAAAAAAAAAAAAAAAAAAAAAAAABc4D/9XT532SaOuAAAAABJRU5ErkJggg==;container=0;" vertex="1" parent="4H_WjhlQltqY6Wh8Jc6u-2">
          <mxGeometry x="186.34000000000015" y="488.68000000000006" width="91.67" height="61" as="geometry" />
        </mxCell>
        <mxCell id="4H_WjhlQltqY6Wh8Jc6u-21" value="&lt;div&gt;&lt;font face=&quot;HD현대체 Medium&quot; color=&quot;#000099&quot;&gt;Stateless&lt;/font&gt;&lt;/div&gt;" style="rounded=0;whiteSpace=wrap;html=1;strokeColor=none;fontFamily=HD현대체 Bold;fontSize=22;fillStyle=zigzag-line;fillColor=none;container=0;sketch=1;curveFitting=1;jiggle=2;" vertex="1" parent="4H_WjhlQltqY6Wh8Jc6u-2">
          <mxGeometry x="176.7099999999998" y="602" width="182.43" height="40" as="geometry" />
        </mxCell>
        <mxCell id="4H_WjhlQltqY6Wh8Jc6u-22" value="&lt;font face=&quot;HD현대체 Medium&quot; color=&quot;#000099&quot;&gt;BRAC&lt;/font&gt;" style="rounded=0;whiteSpace=wrap;html=1;strokeColor=none;fontFamily=HD현대체 Bold;fontSize=22;fillStyle=zigzag-line;fillColor=none;container=0;sketch=1;curveFitting=1;jiggle=2;" vertex="1" parent="4H_WjhlQltqY6Wh8Jc6u-2">
          <mxGeometry x="469.5" y="221.18000000000006" width="90.5" height="55.5" as="geometry" />
        </mxCell>
        <mxCell id="4H_WjhlQltqY6Wh8Jc6u-23" value="" style="rounded=0;whiteSpace=wrap;html=1;dashed=1;strokeWidth=2;dashPattern=8 8;fillColor=none;strokeColor=default;fillStyle=auto;container=0;" vertex="1" parent="4H_WjhlQltqY6Wh8Jc6u-2">
          <mxGeometry x="259.5" y="21.680000000000064" width="260" height="160" as="geometry" />
        </mxCell>
        <mxCell id="4H_WjhlQltqY6Wh8Jc6u-24" value="&lt;font style=&quot;font-size: 13px;&quot;&gt;#HTML&lt;/font&gt;" style="shape=note;whiteSpace=wrap;html=1;backgroundOutline=1;darkOpacity=0.05;container=0;" vertex="1" parent="4H_WjhlQltqY6Wh8Jc6u-2">
          <mxGeometry x="429.5" y="36.680000000000064" width="80" height="100" as="geometry" />
        </mxCell>
        <mxCell id="4H_WjhlQltqY6Wh8Jc6u-25" value="&lt;font style=&quot;font-size: 13px;&quot;&gt;#HTML&lt;/font&gt;" style="shape=note;whiteSpace=wrap;html=1;backgroundOutline=1;darkOpacity=0.05;container=0;" vertex="1" parent="4H_WjhlQltqY6Wh8Jc6u-2">
          <mxGeometry x="409.5" y="51.680000000000064" width="80" height="100" as="geometry" />
        </mxCell>
        <mxCell id="4H_WjhlQltqY6Wh8Jc6u-26" value="&lt;div&gt;&lt;font&gt;&lt;font&gt;&lt;br&gt;&lt;/font&gt;&lt;/font&gt;&lt;/div&gt;&lt;font&gt;&lt;font&gt;#HTML&lt;/font&gt;&lt;/font&gt;&lt;div&gt;&lt;b&gt;Frontend&lt;/b&gt;&lt;/div&gt;" style="shape=note;whiteSpace=wrap;html=1;backgroundOutline=1;darkOpacity=0.05;fontFamily=HD현대체 Medium;fontSize=16;container=0;" vertex="1" parent="4H_WjhlQltqY6Wh8Jc6u-2">
          <mxGeometry x="389.5" y="66.68000000000006" width="80" height="100" as="geometry" />
        </mxCell>
        <mxCell id="4H_WjhlQltqY6Wh8Jc6u-27" value="&lt;font style=&quot;font-size: 13px;&quot;&gt;#HTML&lt;/font&gt;" style="shape=note;whiteSpace=wrap;html=1;backgroundOutline=1;darkOpacity=0.05;container=0;" vertex="1" parent="4H_WjhlQltqY6Wh8Jc6u-2">
          <mxGeometry x="309.5" y="36.680000000000064" width="80" height="100" as="geometry" />
        </mxCell>
        <mxCell id="4H_WjhlQltqY6Wh8Jc6u-28" value="&lt;font style=&quot;font-size: 13px;&quot;&gt;#HTML&lt;/font&gt;" style="shape=note;whiteSpace=wrap;html=1;backgroundOutline=1;darkOpacity=0.05;container=0;" vertex="1" parent="4H_WjhlQltqY6Wh8Jc6u-2">
          <mxGeometry x="289.5" y="51.680000000000064" width="80" height="100" as="geometry" />
        </mxCell>
        <mxCell id="4H_WjhlQltqY6Wh8Jc6u-29" value="&lt;div&gt;&lt;font&gt;&lt;font&gt;&lt;br&gt;&lt;/font&gt;&lt;/font&gt;&lt;/div&gt;&lt;font&gt;&lt;font&gt;#Python&lt;/font&gt;&lt;/font&gt;&lt;div&gt;&lt;b&gt;Backend&lt;/b&gt;&lt;/div&gt;" style="shape=note;whiteSpace=wrap;html=1;backgroundOutline=1;darkOpacity=0.05;fontFamily=HD현대체 Medium;fontSize=16;container=0;" vertex="1" parent="4H_WjhlQltqY6Wh8Jc6u-2">
          <mxGeometry x="269.5" y="66.68000000000006" width="80" height="100" as="geometry" />
        </mxCell>
        <mxCell id="4H_WjhlQltqY6Wh8Jc6u-30" value="&lt;font face=&quot;HD현대체 Medium&quot; color=&quot;#000099&quot;&gt;PolP&lt;/font&gt;" style="rounded=0;whiteSpace=wrap;html=1;strokeColor=none;fontFamily=HD현대체 Bold;fontSize=22;fillStyle=zigzag-line;fillColor=none;container=0;sketch=1;curveFitting=1;jiggle=2;" vertex="1" parent="4H_WjhlQltqY6Wh8Jc6u-2">
          <mxGeometry x="177.92000000000007" y="221.18000000000006" width="180" height="55.5" as="geometry" />
        </mxCell>
        <mxCell id="4H_WjhlQltqY6Wh8Jc6u-31" value="&lt;font style=&quot;color: rgb(0, 0, 0);&quot;&gt;App Server&lt;/font&gt;" style="rounded=0;whiteSpace=wrap;html=1;strokeColor=none;fontFamily=HD현대체 Bold;fontSize=22;fillStyle=zigzag-line;fillColor=none;container=0;sketch=1;curveFitting=1;jiggle=2;" vertex="1" parent="4H_WjhlQltqY6Wh8Jc6u-2">
          <mxGeometry x="176.71000000000004" y="552" width="182.43" height="58" as="geometry" />
        </mxCell>
      </root>
    </mxGraphModel>
  </diagram>
</mxfile>
